<svg width="24" height="24" viewBox="0 0 24 24" fill="none" xmlns="http://www.w3.org/2000/svg">
<path d="M18.5577 5.50049H4.67228C4.04211 5.50049 3.53125 6.01135 3.53125 6.64152V18.0896C3.53125 18.7198 4.04211 19.2307 4.67228 19.2307H18.5577C19.1878 19.2307 19.6987 18.7198 19.6987 18.0896V6.64152C19.6987 6.01135 19.1878 5.50049 18.5577 5.50049Z" fill="white"/>
<path d="M21.8351 7.17075L19.9473 5.2872L17.5268 2.8667H5.37397L3.07512 5.32915L1.39713 7.1246C1.39713 7.1246 1.38874 7.15397 1.38874 7.17075C1.36776 7.27982 1.35938 7.39728 1.35938 7.51054C1.35938 8.75645 2.36617 9.76324 3.61208 9.76324C4.48044 9.76324 5.23553 9.26824 5.61308 8.5467C5.98644 9.27243 6.74153 9.76324 7.60989 9.76324C8.47825 9.76324 9.23754 9.26824 9.61509 8.5467C9.98844 9.27243 10.7435 9.76324 11.6119 9.76324C12.4803 9.76324 13.2354 9.26824 13.6129 8.5467C13.9863 9.27243 14.7414 9.76324 15.6097 9.76324C16.4781 9.76324 17.2332 9.26824 17.6107 8.5467C17.9841 9.27243 18.7434 9.76324 19.6117 9.76324C20.8576 9.76324 21.8644 8.75645 21.8644 7.51054L21.8267 7.17075H21.8351Z" fill="#F4E87C"/>
<path d="M11.6148 11.9487C10.1214 11.9487 8.90907 13.0268 8.89648 14.3566V19.2186H14.3374V14.3566C14.3248 13.0226 13.1124 11.9487 11.619 11.9487H11.6148Z" fill="#F4E87C"/>
<path d="M7.37477 3.94862C5.15982 4.75825 4.50121 5.41686 3.68739 7.636C2.87775 5.42105 2.21914 4.76244 0 3.94862C2.21914 3.13479 2.87775 2.47618 3.69158 0.26123C4.50121 2.47618 5.15982 3.13479 7.37897 3.94862H7.37477Z" fill="#7DDFF9"/>
<path d="M24 19.5513C21.4846 20.4707 20.7367 21.2186 19.8125 23.7388C18.8931 21.2234 18.1451 20.4755 15.625 19.5513C18.1404 18.6318 18.8883 17.8839 19.8125 15.3638C20.7319 17.8791 21.4799 18.6271 24 19.5513Z" fill="#7DDFF9"/>
</svg>
