<svg width="24" height="21" viewBox="0 0 24 21" fill="none" xmlns="http://www.w3.org/2000/svg">
<path d="M8.94792 16.1203C8.94792 18.3434 7.36842 20.1474 5.42475 20.1474C3.87913 20.1474 2.56641 19.0083 2.09214 17.4245C1.96086 17.1027 1.83383 16.7639 1.71526 16.3998C1.57552 15.9848 1.86347 15.5444 2.29963 15.502L8.02478 14.8923C8.73619 14.7483 8.84629 15.3199 8.85899 15.4216C8.92675 15.7307 8.95639 15.7858 8.95639 16.116L8.94792 16.1203Z" fill="#FCEF7B"/>
<path d="M10.8239 5.64046C10.8239 6.55513 10.6122 7.41475 10.2438 8.17697C9.64247 9.84963 9.21478 11.3614 8.97341 12.7291C8.88872 13.2077 8.4949 13.5634 8.01216 13.6057L1.76616 14.1731C1.20719 14.224 0.703276 13.8386 0.605881 13.2839C0.123139 10.5737 -0.0885898 7.62224 0.034213 5.32287H0.0384476C0.199362 2.35866 2.54532 0 5.42483 0C8.30435 0 10.8239 2.52804 10.8239 5.64046Z" fill="#FCEF7B"/>
<path d="M15.0514 16.1203C15.0514 18.3434 16.6309 20.1474 18.5746 20.1474C20.1202 20.1474 21.4329 19.0083 21.9072 17.4245C22.0385 17.1027 22.1655 16.7639 22.2841 16.3998C22.4238 15.9848 22.1359 15.5444 21.6997 15.502L15.9746 14.8923C15.2632 14.7483 15.1531 15.3199 15.1404 15.4216C15.0726 15.7307 15.043 15.7858 15.043 16.116L15.0514 16.1203Z" fill="#FCEF7B"/>
<path d="M13.1797 5.64046C13.1797 6.55513 13.3914 7.41475 13.7598 8.17697C14.3611 9.84963 14.7888 11.3614 15.0302 12.7291C15.1149 13.2077 15.5087 13.5634 15.9914 13.6057L22.2375 14.1731C22.7964 14.224 23.3003 13.8386 23.3977 13.2839C23.8805 10.5653 24.088 7.61377 23.9694 5.31863H23.9652C23.8042 2.35866 21.4583 0 18.5788 0C15.6993 0 13.1797 2.52804 13.1797 5.64046Z" fill="#FCEF7B"/>
</svg>
