<svg width="24" height="24" viewBox="0 0 24 24" fill="none" xmlns="http://www.w3.org/2000/svg">
<path d="M20.1271 6.08496H3.87536C3.1395 6.08496 2.54297 6.68149 2.54297 7.41735V20.8176C2.54297 21.5535 3.1395 22.15 3.87536 22.15H20.1271C20.863 22.15 21.4595 21.5535 21.4595 20.8176V7.41735C21.4595 6.68149 20.863 6.08496 20.1271 6.08496Z" fill="white"/>
<path d="M23.9576 8.03677L21.7511 5.83451C21.7511 5.83451 21.7511 5.83027 21.7468 5.83027L18.9165 3H4.69731L2.00707 5.88119L0.0424328 7.98161C0.0424328 7.98161 0.0339462 8.01556 0.0339462 8.03677C0.00848656 8.16407 0 8.29986 0 8.43564C0 9.89109 1.17963 11.0707 2.63508 11.0707C3.65347 11.0707 4.53607 10.4936 4.97737 9.64498C5.41443 10.4936 6.29703 11.0707 7.31542 11.0707C8.33381 11.0707 9.22065 10.4936 9.66195 9.64498C10.099 10.4936 10.9816 11.0707 12 11.0707C13.0184 11.0707 13.901 10.4936 14.3423 9.64498C14.7793 10.4936 15.662 11.0707 16.6803 11.0707C17.6987 11.0707 18.5813 10.4936 19.0226 9.64498C19.4597 10.4936 20.3465 11.0707 21.3649 11.0707C22.8204 11.0707 24 9.89109 24 8.43564L23.9576 8.03677Z" fill="#FCEF7B"/>
<path d="M11.9989 13.6294C10.2506 13.6294 8.83338 14.8896 8.81641 16.4469V22.1372H15.1813V16.4469C15.1644 14.8896 13.7471 13.6294 11.9989 13.6294Z" fill="#FCEF7B"/>
</svg>
