<svg width="32" height="32" viewBox="0 0 32 32" fill="none" xmlns="http://www.w3.org/2000/svg">
<path d="M26.1673 10.5139C27.1209 12.2817 27.5971 14.2676 27.549 16.2757C27.501 18.2838 26.9303 20.2446 25.8932 21.9648C24.8561 23.685 23.3885 25.1052 21.6352 26.0852C19.8818 27.0652 17.9033 27.5712 15.8947 27.5533L15.9979 15.9992L26.1673 10.5139Z" fill="#7DDFF9"/>
<path d="M5.83373 10.5087C6.83559 8.65383 8.3258 7.10844 10.143 6.03984C11.9602 4.97123 14.0351 4.42014 16.143 4.44624C18.251 4.47234 20.3116 5.07463 22.1018 6.1879C23.892 7.30116 25.3435 8.88297 26.2991 10.762L16 15.9998L5.83373 10.5087Z" fill="#FCEF7B"/>
<path d="M5.83272 10.5139C4.87915 12.2817 4.4029 14.2676 4.45097 16.2757C4.49903 18.2838 5.06974 20.2446 6.10681 21.9648C7.14388 23.685 8.61147 25.1052 10.3648 26.0852C12.1182 27.0652 14.0967 27.5712 16.1053 27.5533L16.0021 15.9992L5.83272 10.5139Z" fill="#9DF4B6"/>
</svg>
