<svg width="24" height="24" viewBox="0 0 24 24" fill="none" xmlns="http://www.w3.org/2000/svg">
<path d="M13.646 7.94739L3.31381 19.7956C2.98301 20.1749 3.02236 20.7506 3.40169 21.0814L4.18955 21.7684C4.56889 22.0992 5.14457 22.0599 5.47537 21.6806L15.8076 9.83237C16.1384 9.45303 16.099 8.87735 15.7197 8.54655L14.9318 7.8595C14.5525 7.5287 13.9768 7.56805 13.646 7.94739Z" fill="#FCF09A"/>
<path d="M13.5078 8.05664L15.4456 5.83447C15.6717 5.57522 16.0625 5.54851 16.3218 5.77459L17.5473 6.84334C17.8066 7.06942 17.8333 7.46021 17.6072 7.71946L15.6694 9.94163L13.5078 8.05664Z" fill="white"/>
<path d="M6.50781 20.542L4.56998 22.7642C4.3439 23.0234 3.95311 23.0501 3.69385 22.824L2.4683 21.7553C2.20904 21.5292 2.18233 21.1384 2.40842 20.8792L4.34625 18.657L6.50781 20.542Z" fill="white"/>
<path d="M12.5485 5.38294C9.91675 6.34831 9.13476 7.13207 8.17038 9.77101C7.20501 7.13924 6.42124 6.35725 3.78231 5.39287C6.41407 4.4275 7.19606 3.64374 8.16045 1.0048C9.12582 3.63656 9.90958 4.41855 12.5485 5.38294Z" fill="#7DDFF9"/>
<path d="M20.8312 14.8004C19.2274 15.39 18.7494 15.8636 18.1597 17.4718C17.57 15.8681 17.0965 15.39 15.4883 14.8004C17.092 14.2107 17.57 13.7371 18.1597 12.1289C18.7494 13.7327 19.223 14.2107 20.8312 14.8004Z" fill="#7DDFF9"/>
<path d="M21.9991 9.33156C20.9358 9.72021 20.6187 10.0374 20.23 11.1006C19.8413 10.0374 19.5242 9.72021 18.4609 9.33156C19.5242 8.9429 19.8413 8.62572 20.23 7.5625C20.6187 8.62572 20.9358 8.9429 21.9991 9.33156Z" fill="white"/>
</svg>
