<svg width="24" height="25" viewBox="0 0 24 25" fill="none" xmlns="http://www.w3.org/2000/svg">
<path d="M14.1639 3.56807C14.4343 2.4991 13.0293 1.84339 12.3837 2.7373L5.45363 12.3331C4.97602 12.9944 5.44855 13.9186 6.26432 13.9186H9.79168C10.5134 13.9186 10.9974 14.6597 10.7073 15.3205L7.65687 22.2695C7.19284 23.3266 8.59243 24.1987 9.33685 23.3163L18.0093 13.0369C18.4709 12.4897 18.2249 11.649 17.5412 11.4369L13.4694 10.1741C12.9615 10.0166 12.6657 9.48917 12.7961 8.97368L14.1639 3.56807Z" fill="#FCEF7B"/>
<path d="M21.637 23.1709L3.25834 0.596288C3.05742 0.349486 2.69446 0.312298 2.44766 0.513227C2.20086 0.714155 2.16367 1.07711 2.3646 1.32391L20.7432 23.8985C20.9442 24.1453 21.3071 24.1825 21.5539 23.9816C21.8007 23.7807 21.8379 23.4177 21.637 23.1709Z" fill="#FCEF7B"/>
</svg>
