<svg width="15" height="24" viewBox="0 0 15 24" fill="none" xmlns="http://www.w3.org/2000/svg">
<path d="M3.7956 2.87109H2.53711V13.4601H3.7956V2.87109Z" fill="white"/>
<path d="M14.2518 3.26953H9.29654C8.92458 3.26953 8.62305 3.57106 8.62305 3.94302V23.3267C8.62305 23.6987 8.92458 24.0002 9.29654 24.0002H14.2518C14.6238 24.0002 14.9253 23.6987 14.9253 23.3267V3.94302C14.9253 3.57106 14.6238 3.26953 14.2518 3.26953Z" fill="#FCEF7B"/>
<path d="M13.6133 1.23389H9.94107C9.56911 1.23389 9.26758 1.53542 9.26758 1.90738V2.64477C9.26758 3.01673 9.56911 3.31826 9.94107 3.31826H13.6133C13.9853 3.31826 14.2868 3.01673 14.2868 2.64477V1.90738C14.2868 1.53542 13.9853 1.23389 13.6133 1.23389Z" fill="#FCF09A"/>
<path d="M5.86968 15.3076H0.432606C0.193684 15.3076 0 15.5013 0 15.7402V23.4485C0 23.6874 0.193684 23.8811 0.432606 23.8811H5.86968C6.1086 23.8811 6.30228 23.6874 6.30228 23.4485V15.7402C6.30228 15.5013 6.1086 15.3076 5.86968 15.3076Z" fill="#FCEF7B"/>
<path d="M4.98635 13.2729H1.31411C0.942156 13.2729 0.640625 13.5745 0.640625 13.9464V14.6838C0.640625 15.0558 0.942156 15.3573 1.31411 15.3573H4.98635C5.35831 15.3573 5.65984 15.0558 5.65984 14.6838V13.9464C5.65984 13.5745 5.35831 13.2729 4.98635 13.2729Z" fill="#FCF09A"/>
<path d="M4.67123 1.47479C4.67123 0.660288 4.01205 0 3.1989 0C2.38575 0 1.72656 0.660288 1.72656 1.47479V3.4756C1.72656 4.2901 2.38575 4.95039 3.1989 4.95039C4.01205 4.95039 4.67123 4.2901 4.67123 3.4756V1.47479Z" fill="#FCEF7B"/>
</svg>
