<svg width="24" height="24" viewBox="0 0 24 24" fill="none" xmlns="http://www.w3.org/2000/svg">
<path d="M18.6397 15.1148C21.4771 15.1148 23.7774 12.8145 23.7774 9.97707C23.7774 7.13959 21.4771 4.83936 18.6397 4.83936C15.8022 4.83936 13.502 7.13959 13.502 9.97707C13.502 12.8145 15.8022 15.1148 18.6397 15.1148Z" fill="white"/>
<path d="M5.13771 15.1148C7.97519 15.1148 10.2754 12.8145 10.2754 9.97707C10.2754 7.13959 7.97519 4.83936 5.13771 4.83936C2.30023 4.83936 0 7.13959 0 9.97707C0 12.8145 2.30023 15.1148 5.13771 15.1148Z" fill="white"/>
<path d="M15.6826 23C18.5201 23 20.8203 20.6998 20.8203 17.8623C20.8203 15.0248 18.5201 12.7246 15.6826 12.7246C12.8452 12.7246 10.5449 15.0248 10.5449 17.8623C10.5449 20.6998 12.8452 23 15.6826 23Z" fill="white"/>
<path d="M7.8799 23C10.7174 23 13.0176 20.6998 13.0176 17.8623C13.0176 15.0248 10.7174 12.7246 7.8799 12.7246C5.04242 12.7246 2.74219 15.0248 2.74219 17.8623C2.74219 20.6998 5.04242 23 7.8799 23Z" fill="white"/>
<path d="M11.7549 10.2754C14.5924 10.2754 16.8926 7.97519 16.8926 5.13771C16.8926 2.30023 14.5924 0 11.7549 0C8.91742 0 6.61719 2.30023 6.61719 5.13771C6.61719 7.97519 8.91742 10.2754 11.7549 10.2754Z" fill="white"/>
<path d="M11.7529 16.3413C14.1751 16.3413 16.1387 14.3778 16.1387 11.9556C16.1387 9.53339 14.1751 7.56982 11.7529 7.56982C9.33075 7.56982 7.36719 9.53339 7.36719 11.9556C7.36719 14.3778 9.33075 16.3413 11.7529 16.3413Z" fill="#FCEF7B"/>
</svg>
