<svg width="24" height="24" viewBox="0 0 24 24" fill="none" xmlns="http://www.w3.org/2000/svg">
<path d="M17.1856 11.6696C13.7274 12.0934 10.1802 12.0723 6.55664 11.6696V9.98291C10.1463 10.4533 13.6892 10.466 17.1856 9.98291V11.6696Z" fill="#F4E87C"/>
<path d="M21.1398 16.3576H16.0838C14.9099 16.3576 13.9224 15.6371 13.7911 14.6835L13.0282 9.09359C12.8756 7.97898 13.9436 7 15.321 7H21.695C23.0427 7 24.1022 7.94084 23.992 9.03849L23.4368 14.6285C23.3393 15.6074 22.3392 16.3618 21.1398 16.3618V16.3576Z" fill="#FCEF7B"/>
<path d="M20.6027 15.4032H16.5808C15.6485 15.4032 14.8602 14.8311 14.7585 14.0683L14.1524 9.62258C14.0295 8.73259 14.8814 7.95703 15.9748 7.95703H21.0435C22.1157 7.95703 22.9591 8.70292 22.8701 9.57596L22.4293 14.0216C22.353 14.8014 21.5563 15.399 20.6027 15.399V15.4032Z" fill="white"/>
<path d="M17.13 7.7839L14.6211 14.6198V15.815H16.6299L19.5372 7.75L17.13 7.7839Z" fill="#F4E87C"/>
<path d="M20.5667 7.55037L17.4688 15.8739L18.452 15.9629L21.6898 7.16895L20.5667 7.55037Z" fill="#F4E87C"/>
<path d="M8.12537 16.3576H3.0694C1.89547 16.3576 0.908005 15.6371 0.776626 14.6835L0.0137808 9.09359C-0.13455 7.97475 0.933433 7 2.30655 7H8.68055C10.0282 7 11.0877 7.94084 10.9776 9.03849L10.4224 14.6285C10.3249 15.6074 9.32473 16.3618 8.12537 16.3618V16.3576Z" fill="#F4E87C"/>
<path d="M7.58904 15.4032H3.56716C2.63479 15.4032 1.84652 14.8311 1.7448 14.0683L1.13877 9.62258C1.01586 8.73259 1.86771 7.95703 2.96112 7.95703H8.0298C9.10202 7.95703 9.94539 8.70292 9.85639 9.57596L9.41563 14.0216C9.33935 14.8014 8.5426 15.399 7.58904 15.399V15.4032Z" fill="white"/>
<path d="M4.11633 7.7839L1.60742 14.6198V15.815H3.61201L6.5193 7.75L4.11633 7.7839Z" fill="#F4E87C"/>
<path d="M7.54917 7.55037L4.45117 15.8739L5.43863 15.9629L8.67649 7.16895L7.54917 7.55037Z" fill="#F4E87C"/>
</svg>
