<svg width="31" height="32" viewBox="0 0 31 32" fill="none" xmlns="http://www.w3.org/2000/svg">
<path d="M1.15234 5.36163V21.9197C1.15234 23.0165 1.70315 24.0263 2.59701 24.5578L11.7143 29.9934C12.5454 30.4911 13.5552 30.4959 14.3911 30.0176L23.8998 24.5481C24.813 24.0263 25.3831 23.002 25.3831 21.8907V5.36163C25.3831 3.69471 24.1269 2.34668 22.5808 2.34668H3.95471C2.40857 2.34668 1.15234 3.69471 1.15234 5.36163Z" fill="white"/>
<path d="M10.2074 5.44189H6.3711C5.19965 5.44189 4.25 6.39154 4.25 7.56299V11.3993C4.25 12.5708 5.19965 13.5204 6.3711 13.5204H10.2074C11.3789 13.5204 12.3285 12.5708 12.3285 11.3993V7.56299C12.3285 6.39154 11.3789 5.44189 10.2074 5.44189Z" fill="#5453EE"/>
<path d="M20.2309 5.44189H16.3945C15.2231 5.44189 14.2734 6.39154 14.2734 7.56299V11.3993C14.2734 12.5708 15.2231 13.5204 16.3945 13.5204H20.2309C21.4023 13.5204 22.352 12.5708 22.352 11.3993V7.56299C22.352 6.39154 21.4023 5.44189 20.2309 5.44189Z" fill="#5453EE"/>
<path d="M20.2309 15.0396H16.3945C15.2231 15.0396 14.2734 15.9892 14.2734 17.1606V20.997C14.2734 22.1684 15.2231 23.1181 16.3945 23.1181H20.2309C21.4023 23.1181 22.352 22.1684 22.352 20.997V17.1606C22.352 15.9892 21.4023 15.0396 20.2309 15.0396Z" fill="#5453EE"/>
<path d="M10.2074 15.0396H6.3711C5.19965 15.0396 4.25 15.9892 4.25 17.1606V20.997C4.25 22.1684 5.19965 23.1181 6.3711 23.1181H10.2074C11.3789 23.1181 12.3285 22.1684 12.3285 20.997V17.1606C12.3285 15.9892 11.3789 15.0396 10.2074 15.0396Z" fill="#5453EE"/>
<circle cx="25.8489" cy="4.96165" r="4.92308" fill="#FCEF7B"/>
<path d="M23.3828 4.96191H28.3059" stroke="#5453EE" stroke-width="1.23077" stroke-linecap="round"/>
<path d="M25.8477 2.50049L25.8477 7.42357" stroke="#5453EE" stroke-width="1.23077" stroke-linecap="round"/>
</svg>
