<svg width="33" height="31" viewBox="0 0 33 31" fill="none" xmlns="http://www.w3.org/2000/svg">
<path d="M1.57227 6.48975H27.5664C29.6984 6.48975 31.4297 8.22098 31.4297 10.353V25.4907C31.4297 27.6227 29.6984 29.354 27.5664 29.354H5.43556C3.3035 29.354 1.57227 27.6227 1.57227 25.4907V6.48975Z" stroke="#676F7B" stroke-width="2" stroke-miterlimit="10"/>
<path d="M16.5472 23.6315C19.6982 23.6315 22.2526 21.0771 22.2526 17.9261C22.2526 14.7751 19.6982 12.2207 16.5472 12.2207C13.3962 12.2207 10.8418 14.7751 10.8418 17.9261C10.8418 21.0771 13.3962 23.6315 16.5472 23.6315Z" stroke="#676F7B" stroke-width="2" stroke-miterlimit="10"/>
<path d="M16.5468 19.7166C17.5359 19.7166 18.3377 18.9148 18.3377 17.9257C18.3377 16.9366 17.5359 16.1348 16.5468 16.1348C15.5577 16.1348 14.7559 16.9366 14.7559 17.9257C14.7559 18.9148 15.5577 19.7166 16.5468 19.7166Z" fill="#676F7B"/>
<path d="M26.7083 12.5832C27.5137 12.5832 28.1667 11.9303 28.1667 11.1248C28.1667 10.3194 27.5137 9.6665 26.7083 9.6665C25.9029 9.6665 25.25 10.3194 25.25 11.1248C25.25 11.9303 25.9029 12.5832 26.7083 12.5832Z" fill="#676F7B"/>
<path d="M4.31836 1.646H7.92581C9.44384 1.646 10.6719 2.87406 10.6719 4.39209V6.30242H1.57227V4.39209C1.57227 2.87406 2.80033 1.646 4.31836 1.646Z" stroke="#676F7B" stroke-width="2" stroke-miterlimit="10"/>
</svg>
