<svg width="78" height="78" viewBox="0 0 78 78" fill="none" xmlns="http://www.w3.org/2000/svg">
<path d="M60.54 0H16.92C7.57534 0 0 7.57534 0 16.92V60.54C0 69.8847 7.57534 77.46 16.92 77.46H60.54C69.8847 77.46 77.46 69.8847 77.46 60.54V16.92C77.46 7.57534 69.8847 0 60.54 0Z" fill="#7DDFF9"/>
<path d="M44.7096 45.52C43.1096 47.17 40.9996 48.17 38.6896 48.18C36.8096 48.18 35.0596 47.53 33.5996 46.4C34.2596 44.78 35.5996 43.44 37.3896 42.84C40.2096 41.9 43.2296 43.07 44.7096 45.52Z" fill="#676E79"/>
<path d="M47.5606 40.19C47.1406 42.05 46.3106 43.7 45.1706 45.02C45.0306 45.19 44.8806 45.35 44.7106 45.52C43.2306 43.07 40.2106 41.89 37.3906 42.84C35.5906 43.44 34.2506 44.78 33.6006 46.4C31.7506 44.98 30.3706 42.8 29.7806 40.25C29.5206 39.14 30.3906 38.06 31.5406 38.06L45.7706 38.02C46.9206 38.02 47.8106 39.07 47.5506 40.19H47.5606Z" fill="#171C24"/>
<path d="M12.53 32.6101C12.51 32.3201 12.5 32.0401 12.5 31.7501C12.5 24.4801 18.4 18.5801 25.68 18.5801" stroke="#171C24" stroke-width="1.58" stroke-linecap="round" stroke-linejoin="round"/>
<path d="M38.9606 32.6101C38.9806 32.3201 38.9906 32.0401 38.9906 31.7501C38.9906 24.4801 33.0905 18.5801 25.8105 18.5801" stroke="#171C24" stroke-width="1.58" stroke-linecap="round" stroke-linejoin="round"/>
<path d="M39.0202 32.6101C39.0002 32.3201 38.9902 32.0401 38.9902 31.7501C38.9902 24.4801 44.8902 18.5801 52.1702 18.5801" stroke="#171C24" stroke-width="1.58" stroke-linecap="round" stroke-linejoin="round"/>
<path d="M65.441 32.6101C65.461 32.3201 65.471 32.0401 65.471 31.7501C65.471 24.4801 59.571 18.5801 52.291 18.5801" stroke="#171C24" stroke-width="1.58" stroke-linecap="round" stroke-linejoin="round"/>
</svg>
