<svg width="77" height="77" viewBox="0 0 77 77" fill="none" xmlns="http://www.w3.org/2000/svg">
<circle cx="38.5" cy="38.5" r="38.5" fill="#FCEF7B"/>
<path d="M29.4196 42.8391C34.6219 42.8391 38.8391 38.6219 38.8391 33.4196C38.8391 28.2173 34.6219 24 29.4196 24C24.2173 24 20 28.2173 20 33.4196C20 38.6219 24.2173 42.8391 29.4196 42.8391Z" fill="white"/>
<path d="M48.0114 42.8391C53.2137 42.8391 57.4309 38.6219 57.4309 33.4196C57.4309 28.2173 53.2137 24 48.0114 24C42.8091 24 38.5918 28.2173 38.5918 33.4196C38.5918 38.6219 42.8091 42.8391 48.0114 42.8391Z" fill="white"/>
<path d="M32.7638 35.3357C35.3484 35.3357 37.4437 33.2405 37.4437 30.6559C37.4437 28.0713 35.3484 25.9761 32.7638 25.9761C30.1792 25.9761 28.084 28.0713 28.084 30.6559C28.084 33.2405 30.1792 35.3357 32.7638 35.3357Z" fill="#171C24"/>
<path d="M51.5431 35.3357C54.1277 35.3357 56.2229 33.2405 56.2229 30.6559C56.2229 28.0713 54.1277 25.9761 51.5431 25.9761C48.9585 25.9761 46.8633 28.0713 46.8633 30.6559C46.8633 33.2405 48.9585 35.3357 51.5431 35.3357Z" fill="#171C24"/>
<path d="M37 52H45.4312" stroke="#171C24" stroke-width="2" stroke-linecap="round" stroke-linejoin="round"/>
</svg>
