<svg width="77" height="77" viewBox="0 0 77 77" fill="none" xmlns="http://www.w3.org/2000/svg">
<path d="M60.1805 0H16.8195C7.53037 0 0 7.53035 0 16.8195V60.1805C0 69.4696 7.53037 77 16.8195 77H60.1805C69.4696 77 77 69.4696 77 60.1805V16.8195C77 7.53035 69.4696 0 60.1805 0Z" fill="#B0B0EE"/>
<path d="M64.6649 28.4994C64.6649 35.4081 59.0584 41.0047 52.1596 41.0047C45.2608 41.0047 39.6543 35.4081 39.6543 28.4994C39.6543 27.734 39.7239 26.9884 39.863 26.2627L62.4879 21.4614C63.8597 23.4595 64.6649 25.8949 64.6649 28.4994Z" fill="white"/>
<path d="M52.16 27.3166C52.16 30.756 49.3865 33.5295 45.957 33.5295C42.5275 33.5295 39.7441 30.756 39.7441 27.3166C39.7441 26.9587 39.774 26.6108 39.8436 26.2629L51.1063 23.8672C51.7723 24.8612 52.16 26.0442 52.16 27.3166Z" fill="#171C24"/>
<path d="M41.1047 47.506C39.8323 49.4047 37.9436 50.7566 35.687 51.1741C33.848 51.5121 32.0189 51.184 30.3887 50.3291C30.7465 48.6293 31.8201 47.0786 33.4703 46.174C36.0648 44.7525 39.2259 45.3688 41.1047 47.506Z" fill="#676E79"/>
<path d="M42.9458 41.7903C42.8662 43.679 42.3394 45.4485 41.4646 46.9396C41.3553 47.1284 41.236 47.3173 41.1068 47.5062C39.228 45.3689 36.0669 44.7526 33.4724 46.1741C31.8222 47.0787 30.7486 48.6295 30.3908 50.3293C28.3331 49.2657 26.5935 47.3769 25.5696 44.9912C25.1222 43.9474 25.7783 42.7446 26.9016 42.5359L40.8185 39.9811C41.9418 39.7724 42.9955 40.6472 42.9458 41.7903Z" fill="#171C24"/>
<path d="M13.8439 20.9946C14.1819 21.2233 33.0491 27.6648 33.0491 27.6648C26.1802 28.46 19.6591 30.647 13.6152 34.9015" stroke="#171C24" stroke-width="1.98812" stroke-linecap="round" stroke-linejoin="round"/>
</svg>
