<svg width="78" height="78" viewBox="0 0 78 78" fill="none" xmlns="http://www.w3.org/2000/svg">
<path d="M60.54 0H16.92C7.57533 0 0 7.57534 0 16.92V60.54C0 69.8847 7.57533 77.46 16.92 77.46H60.54C69.8847 77.46 77.46 69.8847 77.46 60.54V16.92C77.46 7.57534 69.8847 0 60.54 0Z" fill="#5453EE"/>
<path d="M12.6191 41.09C28.1691 31.42 45.7891 24.65 65.2491 20.48" stroke="#171C24" stroke-width="2" stroke-linecap="round" stroke-linejoin="round"/>
<path d="M12.4297 22.4702C30.6197 24.5702 48.6197 30.2402 66.4497 39.0902" stroke="#171C24" stroke-width="2" stroke-linecap="round" stroke-linejoin="round"/>
<path d="M48.8295 47.7298L47.5795 48.4498C44.8795 49.6998 42.0895 50.2698 39.2795 50.2698H39.1095C36.2795 50.2798 33.4595 49.7098 30.7395 48.4498L29.4895 47.7298C25.7995 45.6998 24.4095 40.3898 27.8095 37.7698L27.9195 37.6798C29.1095 36.7598 30.5995 36.2998 32.0895 36.2998C33.0795 36.2998 34.0695 36.4898 34.9795 36.8998C34.9595 36.9398 34.9595 36.9898 34.9595 37.0298V38.9498C34.9595 39.3698 35.2995 39.7198 35.7295 39.7198H37.6495C38.0695 39.7198 38.4195 39.3698 38.4195 38.9498C38.4195 39.3698 38.7595 39.7198 39.1795 39.7198H41.1095C41.5295 39.7198 41.8695 39.3698 41.8695 38.9498V37.7098C42.0795 37.5998 42.2895 37.4898 42.4995 37.3598C43.6095 36.6398 44.9195 36.2998 46.2295 36.2998C47.7195 36.2998 49.2195 36.7598 50.3995 37.6798L50.5095 37.7698C53.9095 40.3898 52.5195 45.6998 48.8295 47.7298Z" fill="#171C24"/>
<path d="M38.419 38.3199V38.9499C38.419 39.3699 38.069 39.7199 37.649 39.7199H35.729C35.299 39.7199 34.959 39.3699 34.959 38.9499V37.0299C34.959 37.0299 34.959 36.9399 34.979 36.8999C35.269 37.0299 35.559 37.1799 35.829 37.3599C36.619 37.8599 37.499 38.1799 38.419 38.3199Z" fill="white"/>
<path d="M41.8699 37.71V38.95C41.8699 39.37 41.5299 39.72 41.1099 39.72H39.1799C38.7599 39.72 38.4199 39.37 38.4199 38.95V38.32C38.6599 38.36 38.9099 38.39 39.1599 38.4C40.1099 38.35 41.0199 38.12 41.8699 37.71Z" fill="white"/>
<path d="M39.7095 38.8701H36.2695V39.7201H39.7095V38.8701Z" fill="white"/>
</svg>
