<svg width="78" height="78" viewBox="0 0 78 78" fill="none" xmlns="http://www.w3.org/2000/svg">
<g id="Group">
<path id="Vector" d="M60.54 0H16.92C7.57536 0 0 7.57534 0 16.92V60.54C0 69.8847 7.57536 77.46 16.92 77.46H60.54C69.8847 77.46 77.46 69.8847 77.46 60.54V16.92C77.46 7.57534 69.8847 0 60.54 0Z" fill="#B0B0EE"/>
<path id="Vector_2" d="M65.0501 28.67C65.0501 35.62 59.4101 41.25 52.4701 41.25C45.5301 41.25 39.8901 35.62 39.8901 28.67C39.8901 27.9 39.9601 27.15 40.1001 26.42L62.8601 21.59C64.2401 23.6 65.0501 26.05 65.0501 28.67Z" fill="white"/>
<path id="Vector_3" d="M52.47 27.48C52.47 30.94 49.68 33.73 46.23 33.73C42.78 33.73 39.98 30.94 39.98 27.48C39.98 27.12 40.01 26.77 40.08 26.42L51.41 24.01C52.08 25.01 52.47 26.2 52.47 27.48Z" fill="#171C24"/>
<path id="Vector_4" d="M41.3498 47.79C40.0698 49.7 38.1698 51.06 35.8998 51.48C34.0498 51.82 32.2098 51.49 30.5698 50.63C30.9298 48.92 32.0098 47.36 33.6698 46.45C36.2798 45.02 39.4598 45.64 41.3498 47.79Z" fill="#676E79"/>
<path id="Vector_5" d="M43.1998 42.04C43.1198 43.94 42.5899 45.72 41.7099 47.22C41.5999 47.41 41.4798 47.6 41.3498 47.79C39.4598 45.64 36.2798 45.02 33.6698 46.45C32.0098 47.36 30.9298 48.92 30.5698 50.63C28.4998 49.56 26.7498 47.66 25.7198 45.26C25.2698 44.21 25.9298 43 27.0598 42.79L41.0598 40.22C42.1898 40.01 43.2498 40.89 43.1998 42.04Z" fill="#171C24"/>
<path id="Vector_6" d="M13.9302 21.12C14.2702 21.35 33.2502 27.83 33.2502 27.83C26.3402 28.63 19.7802 30.83 13.7002 35.11" stroke="#171C24" stroke-width="2" stroke-linecap="round" stroke-linejoin="round"/>
</g>
</svg>
