<svg width="219" height="415" viewBox="0 0 219 415" fill="none" xmlns="http://www.w3.org/2000/svg">
<path d="M187.22 275.203L195.176 76.2617L66.9583 71.1344L59.0027 270.075L187.22 275.203Z" fill="#C6C9CD"/>
<path d="M180.622 171.984L184.031 86.7222L78.2058 82.4903L74.7963 167.752L180.622 171.984Z" fill="white"/>
<path d="M176.2 268.366L179.609 183.104L73.784 178.872L70.3744 264.134L176.2 268.366Z" fill="white"/>
<path d="M172.172 212.478L139.469 0L2.53126 21.0767L35.2347 233.555L172.172 212.478Z" fill="#A1A5B2"/>
<path d="M129.391 13.8794L135.941 55.0694L143.861 104.869L92.2309 113.079L79.1209 115.169L40.6609 121.279L30.9309 122.829L24.3609 81.5094L24.3509 81.4994L21.0209 60.4694L16.4609 31.8394L129.391 13.8794Z" fill="white"/>
<path d="M66.9178 79.9192C66.2678 82.3492 64.6078 84.4992 62.1778 85.6792L41.3578 95.8392C37.6378 97.6592 33.2878 96.6792 30.6678 93.7192C30.1478 93.1292 29.6878 92.4592 29.3278 91.7092L24.3478 81.5092L21.0078 60.4692C21.6678 59.8392 22.4378 59.2892 23.2978 58.8692L44.1178 48.7092C48.5778 46.5292 53.9678 48.3792 56.1478 52.8392L62.6078 66.0792L65.9578 72.9392L66.3078 73.6592C67.2878 75.6892 67.4578 77.9092 66.9178 79.9192Z" fill="#FCEF7B"/>
<path d="M34.5003 77.1994C38.1896 77.1994 41.1803 74.2086 41.1803 70.5194C41.1803 66.8301 38.1896 63.8394 34.5003 63.8394C30.8111 63.8394 27.8203 66.8301 27.8203 70.5194C27.8203 74.2086 30.8111 77.1994 34.5003 77.1994Z" fill="white"/>
<path d="M46.348 71.4191C50.0372 71.4191 53.028 68.4283 53.028 64.7391C53.028 61.0498 50.0372 58.0591 46.348 58.0591C42.6587 58.0591 39.668 61.0498 39.668 64.7391C39.668 68.4283 42.6587 71.4191 46.348 71.4191Z" fill="white"/>
<path d="M35.7809 71.0394C37.6145 71.0394 39.1009 69.553 39.1009 67.7194C39.1009 65.8858 37.6145 64.3994 35.7809 64.3994C33.9474 64.3994 32.4609 65.8858 32.4609 67.7194C32.4609 69.553 33.9474 71.0394 35.7809 71.0394Z" fill="#171C24"/>
<path d="M47.7497 65.1991C49.5833 65.1991 51.0697 63.7127 51.0697 61.8791C51.0697 60.0455 49.5833 58.5591 47.7497 58.5591C45.9161 58.5591 44.4297 60.0455 44.4297 61.8791C44.4297 63.7127 45.9161 65.1991 47.7497 65.1991Z" fill="#171C24"/>
<path d="M37.0195 78.8793C37.0195 78.8793 39.2395 79.8493 43.0095 78.0093" stroke="#171C24" stroke-width="1.06" stroke-linecap="round" stroke-linejoin="round"/>
<path d="M91.9249 35.5901L67.8484 39.55C62.6876 40.3988 59.192 45.2706 60.0408 50.4314L64.0008 74.5079C64.8496 79.6687 69.7213 83.1642 74.8821 82.3154L98.9586 78.3555C104.119 77.5067 107.615 72.6349 106.766 67.4741L102.806 43.3976C101.957 38.2368 97.0857 34.7412 91.9249 35.5901Z" fill="#9DF4B6"/>
<path d="M87.3809 60.3096C87.3809 60.3096 86.0609 62.4996 81.7109 63.2096" stroke="#171C24" stroke-width="1.12" stroke-linecap="round" stroke-linejoin="round"/>
<path d="M97.853 49.4993C98.483 53.3393 95.883 56.9593 92.053 57.5893C88.213 58.2193 84.593 55.6193 83.963 51.7893C83.893 51.3593 83.863 50.9393 83.873 50.5293L96.003 45.7993C96.943 46.7793 97.613 48.0593 97.853 49.5093V49.4993Z" fill="white"/>
<path d="M90.7903 49.9897C91.1003 51.8997 89.8203 53.6897 87.9103 54.0097C86.0003 54.3297 84.2103 53.0397 83.8903 51.1297C83.8603 50.9297 83.8403 50.7397 83.8503 50.5397L89.8903 48.1797C90.3503 48.6697 90.6703 49.2897 90.7903 49.9997V49.9897Z" fill="#171C24"/>
<path d="M66.9608 54.5397C67.5908 58.3797 71.2208 60.9697 75.0508 60.3397C78.8808 59.7097 81.4808 56.0897 80.8508 52.2497C80.7808 51.8197 80.6708 51.4197 80.5308 51.0297L67.5308 50.4297C66.9508 51.6597 66.7308 53.0897 66.9608 54.5397Z" fill="white"/>
<path d="M73.802 52.7397C74.112 54.6497 75.912 55.9397 77.812 55.6197C79.712 55.2997 81.012 53.5097 80.692 51.5997C80.662 51.3997 80.612 51.2097 80.542 51.0197L74.072 50.7197C73.792 51.3297 73.682 52.0297 73.802 52.7297V52.7397Z" fill="#171C24"/>
<path d="M92.2324 113.079L79.1124 115.169L40.6524 121.279L31.2724 102.509C29.8524 99.6592 29.7224 96.4992 30.6724 93.7092C31.6024 90.9592 33.5724 88.5592 36.3824 87.1692L62.7524 73.9792C63.1124 73.7992 63.4724 73.6492 63.8324 73.5192C64.5224 73.2392 65.2424 73.0392 65.9524 72.9292C70.3024 72.1892 74.7924 74.0392 77.3124 77.7792C77.6124 78.1992 77.8824 78.6392 78.1124 79.1092L79.3424 81.5692L91.2924 105.479C92.5124 107.919 92.7824 110.599 92.2324 113.079Z" fill="#7DDFF9"/>
<path d="M45.8125 112.509C52.2925 101.959 60.9025 92.5492 71.4125 84.1392" stroke="#171C24" stroke-width="1.35" stroke-linecap="round" stroke-linejoin="round"/>
<path d="M40.0625 101.319C51.6925 97.0893 64.2925 95.0893 77.7525 95.0493" stroke="#171C24" stroke-width="1.35" stroke-linecap="round" stroke-linejoin="round"/>
<path d="M69.7039 105.589L69.1639 106.399C67.9039 107.969 66.3939 109.159 64.6939 110.009L64.5939 110.059C62.8839 110.919 61.0039 111.429 58.9839 111.489L58.0139 111.429C55.1739 111.319 52.7239 108.529 53.9839 105.909L54.0239 105.819C54.4639 104.899 55.2239 104.179 56.1239 103.729C56.7239 103.429 57.3739 103.249 58.0539 103.219C58.0539 103.249 58.0739 103.279 58.0839 103.299L58.6639 104.459C58.7939 104.709 59.1039 104.819 59.3639 104.689L60.5239 104.109C60.7739 103.979 60.8839 103.669 60.7539 103.409C60.8839 103.659 61.1939 103.769 61.4439 103.649L62.6139 103.069C62.8639 102.939 62.9639 102.629 62.8439 102.369L62.4739 101.619C62.5639 101.489 62.6639 101.359 62.7539 101.219C63.2039 100.449 63.8939 99.8491 64.6939 99.4491C65.5939 98.9991 66.6439 98.8191 67.6339 99.0191L67.7239 99.0391C70.5739 99.5991 71.3339 103.229 69.7139 105.569L69.7039 105.589Z" fill="#171C24"/>
<path d="M60.5725 103.039L60.7625 103.419C60.8925 103.669 60.7825 103.989 60.5325 104.119L59.3725 104.699C59.1125 104.829 58.8025 104.719 58.6725 104.469L58.0925 103.309C58.0925 103.309 58.0625 103.259 58.0625 103.229C58.2725 103.229 58.5025 103.229 58.7125 103.249C59.3425 103.309 59.9725 103.249 60.5725 103.049V103.039Z" fill="white"/>
<path d="M62.4725 101.629L62.8425 102.379C62.9725 102.629 62.8725 102.949 62.6125 103.079L61.4425 103.659C61.1925 103.789 60.8725 103.679 60.7525 103.419L60.5625 103.039C60.7225 102.989 60.8825 102.929 61.0325 102.859C61.5925 102.539 62.0725 102.129 62.4625 101.619L62.4725 101.629Z" fill="white"/>
<path d="M61.5179 102.978L59.4336 104.02L59.6884 104.529L61.7727 103.488L61.5179 102.978Z" fill="white"/>
<path d="M135.942 55.0696L143.862 104.87L92.2322 113.08L79.1122 115.17C76.9222 112.41 75.6922 108.86 75.8922 105.07L76.4122 95.0596L77.1022 81.9396L77.3222 77.7796L77.9122 66.5296C78.1722 61.4196 80.9922 57.0296 85.0522 54.5396C85.4522 54.2896 85.8522 54.0696 86.2622 53.8796C87.4922 53.2696 88.7922 52.8196 90.1822 52.5696C91.2922 52.3696 92.4522 52.2996 93.6322 52.3596L97.6522 52.5696L104.352 52.9296L132.182 54.3896C133.482 54.4596 134.742 54.6896 135.932 55.0696H135.942Z" fill="#B0B0EE"/>
<path d="M134.851 79.9396C134.531 86.0796 129.281 90.7896 123.151 90.4696C117.011 90.1496 112.301 84.9096 112.621 78.7696C112.661 78.0896 112.751 77.4296 112.911 76.7896L133.251 73.5796C134.381 75.4196 134.981 77.6196 134.861 79.9396H134.851Z" fill="white"/>
<path d="M123.792 78.2995C123.632 81.3595 121.032 83.6894 117.992 83.5294C114.952 83.3694 112.602 80.7695 112.762 77.7195C112.782 77.3995 112.822 77.0895 112.902 76.7895L123.022 75.1895C123.572 76.0995 123.852 77.1694 123.802 78.3094L123.792 78.2995Z" fill="#171C24"/>
<path d="M113.023 95.7295C111.803 97.3595 110.063 98.4695 108.033 98.7395C106.383 98.9495 104.773 98.5795 103.363 97.7395C103.763 96.2495 104.783 94.9195 106.293 94.1895C108.663 93.0495 111.443 93.7395 113.013 95.7295H113.023Z" fill="#676E79"/>
<path d="M114.921 90.7297C114.761 92.4097 114.211 93.9497 113.361 95.2397C113.251 95.3997 113.141 95.5697 113.021 95.7297C111.451 93.7397 108.671 93.0497 106.301 94.1897C104.791 94.9197 103.761 96.2497 103.371 97.7397C101.591 96.6997 100.131 94.9397 99.3309 92.7697C98.9809 91.8197 99.6209 90.7797 100.631 90.6497L113.121 89.0297C114.131 88.8997 115.021 89.7197 114.931 90.7397L114.921 90.7297Z" fill="#171C24"/>
<path d="M90.0336 70.8896C90.3236 71.1096 106.794 77.7096 106.794 77.7096C100.654 78.0996 94.7536 79.7397 89.1836 83.2297" stroke="#171C24" stroke-width="1.77" stroke-linecap="round" stroke-linejoin="round"/>
<path d="M83.832 48.2792L88.872 43.4092" stroke="#171C24" stroke-linecap="round" stroke-linejoin="round"/>
<path d="M75.0117 47.3994L79.5917 49.2194" stroke="#171C24" stroke-linecap="round" stroke-linejoin="round"/>
<path d="M145.168 112.1L152.808 161.72L156.078 182.93L159.188 203.15L156.408 203.58L95.9384 212.89L94.0684 213.18L56.6484 218.94L46.1684 220.55L32.1484 129.49L145.168 112.1Z" fill="white"/>
<path d="M130.616 127.945L107.277 129.892C102.274 130.31 98.5572 134.704 98.9746 139.706L100.922 163.045C101.34 168.048 105.734 171.765 110.737 171.348L134.075 169.4C139.078 168.983 142.796 164.589 142.378 159.586L140.431 136.247C140.013 131.244 135.619 127.527 130.616 127.945Z" fill="#7DDFF9"/>
<path d="M106.629 151.5C114.519 145.63 123.649 141.22 133.879 138.12" stroke="#171C24" stroke-width="1.07" stroke-linecap="round" stroke-linejoin="round"/>
<path d="M105.691 141.54C115.521 141.85 125.411 144.08 135.351 148.02" stroke="#171C24" stroke-width="1.07" stroke-linecap="round" stroke-linejoin="round"/>
<path d="M126.179 153.51L125.539 153.95C124.149 154.74 122.679 155.17 121.179 155.29H121.089C119.579 155.43 118.039 155.25 116.529 154.7L115.829 154.37C113.759 153.45 112.779 150.67 114.489 149.11L114.539 149.06C115.139 148.51 115.909 148.2 116.709 148.14C117.239 148.1 117.779 148.15 118.279 148.33C118.279 148.35 118.279 148.38 118.279 148.4L118.369 149.43C118.389 149.65 118.589 149.83 118.819 149.81L119.849 149.72C120.069 149.7 120.249 149.5 120.229 149.27C120.249 149.49 120.449 149.67 120.669 149.65L121.699 149.56C121.919 149.54 122.089 149.34 122.069 149.11L122.009 148.45C122.119 148.38 122.219 148.31 122.329 148.23C122.889 147.8 123.579 147.55 124.279 147.5C125.079 147.43 125.899 147.61 126.569 148.05L126.629 148.09C128.569 149.34 128.059 152.24 126.179 153.5V153.51Z" fill="#171C24"/>
<path d="M120.19 148.939L120.22 149.279C120.24 149.499 120.07 149.709 119.84 149.729L118.81 149.819C118.58 149.839 118.38 149.669 118.36 149.439L118.27 148.409C118.27 148.409 118.27 148.359 118.27 148.339C118.43 148.399 118.59 148.459 118.75 148.549C119.2 148.779 119.68 148.909 120.18 148.949L120.19 148.939Z" fill="white"/>
<path d="M122.009 148.46L122.069 149.12C122.089 149.34 121.919 149.55 121.699 149.57L120.669 149.66C120.449 149.68 120.249 149.51 120.229 149.28L120.199 148.94C120.329 148.95 120.469 148.96 120.599 148.94C121.109 148.87 121.579 148.71 122.019 148.45L122.009 148.46Z" fill="white"/>
<path d="M120.922 149.176L119.078 149.33L119.116 149.788L120.96 149.634L120.922 149.176Z" fill="white"/>
<path d="M66.7375 182.957L93.2336 172.568C98.91 170.342 101.707 163.936 99.4817 158.26L89.0927 131.764C86.8669 126.087 80.4609 123.29 74.7845 125.516L48.2884 135.905C42.612 138.131 39.8146 144.537 42.0403 150.213L52.4293 176.709C54.6551 182.385 61.0611 185.183 66.7375 182.957Z" fill="#B0B0EE"/>
<path d="M52.377 154.39C54.037 158.61 58.797 160.69 63.017 159.04C67.237 157.39 69.317 152.62 67.667 148.4C67.487 147.93 67.267 147.49 67.007 147.08L52.027 149.57C51.667 151.12 51.757 152.8 52.387 154.39H52.377Z" fill="white"/>
<path d="M59.7495 150.67C60.5695 152.77 62.9295 153.8 65.0295 152.98C67.1295 152.16 68.1595 149.8 67.3395 147.69C67.2495 147.47 67.1495 147.27 67.0295 147.07L59.5695 148.3C59.3995 149.07 59.4495 149.88 59.7495 150.66V150.67Z" fill="#171C24"/>
<path d="M71.3281 160.36C72.5581 161.22 74.0381 161.59 75.5181 161.3C76.7181 161.07 77.7581 160.43 78.5581 159.51C77.9281 158.56 76.9081 157.87 75.6781 157.71C73.7481 157.46 71.9681 158.6 71.3281 160.35V160.36Z" fill="#676E79"/>
<path d="M68.8387 157.31C69.3387 158.45 70.0887 159.4 70.9787 160.1C71.0887 160.19 71.2087 160.28 71.3287 160.36C71.9687 158.6 73.7487 157.47 75.6787 157.72C76.9087 157.88 77.9287 158.57 78.5587 159.52C79.5587 158.38 80.1687 156.81 80.2287 155.1C80.2487 154.35 79.5587 153.78 78.8287 153.92L69.7087 155.69C68.9687 155.83 68.5387 156.62 68.8387 157.31Z" fill="#171C24"/>
<path d="M81.64 137.629C81.49 137.849 71.5 146.309 71.5 146.309C75.89 145.149 80.4 144.919 85.11 146.069" stroke="#171C24" stroke-width="1.31" stroke-linecap="round" stroke-linejoin="round"/>
<path d="M98.4377 211.68L95.9377 212.89L94.3177 213.66C94.2177 213.5 94.1377 213.34 94.0577 213.17L56.6377 218.93L43.9577 192.64C41.2177 186.97 43.5977 180.15 49.2777 177.41L52.1577 176.02L75.7577 164.64C81.4277 161.9 88.2477 164.29 90.9877 169.96L92.0277 172.13L92.3877 172.87L103.748 196.44C106.488 202.12 104.098 208.94 98.4277 211.67L98.4377 211.68Z" fill="#FCEF7B"/>
<path d="M63.4175 200.76C68.1009 200.76 71.8975 196.963 71.8975 192.28C71.8975 187.596 68.1009 183.8 63.4175 183.8C58.7341 183.8 54.9375 187.596 54.9375 192.28C54.9375 196.963 58.7341 200.76 63.4175 200.76Z" fill="white"/>
<path d="M78.4995 193.49C83.1829 193.49 86.9795 189.693 86.9795 185.01C86.9795 180.326 83.1829 176.53 78.4995 176.53C73.8162 176.53 70.0195 180.326 70.0195 185.01C70.0195 189.693 73.8162 193.49 78.4995 193.49Z" fill="white"/>
<path d="M65.0577 192.95C67.3828 192.95 69.2677 191.065 69.2677 188.74C69.2677 186.415 67.3828 184.53 65.0577 184.53C62.7325 184.53 60.8477 186.415 60.8477 188.74C60.8477 191.065 62.7325 192.95 65.0577 192.95Z" fill="#171C24"/>
<path d="M80.2764 185.609C82.6015 185.609 84.4864 183.725 84.4864 181.399C84.4864 179.074 82.6015 177.189 80.2764 177.189C77.9513 177.189 76.0664 179.074 76.0664 181.399C76.0664 183.725 77.9513 185.609 80.2764 185.609Z" fill="#171C24"/>
<path d="M84.1668 200.519L83.6468 201.299C82.4368 202.799 80.9768 203.929 79.3468 204.739L79.2468 204.789C77.6068 205.609 75.8068 206.079 73.8668 206.129L72.9368 206.069C70.2068 205.949 67.8768 203.259 69.1068 200.769L69.1468 200.689C69.5768 199.809 70.3068 199.119 71.1768 198.689C71.7568 198.409 72.3768 198.229 73.0268 198.209C73.0268 198.239 73.0368 198.269 73.0568 198.289L73.6068 199.409C73.7268 199.649 74.0268 199.759 74.2768 199.639L75.3968 199.089C75.6368 198.969 75.7468 198.669 75.6268 198.419C75.7468 198.659 76.0468 198.769 76.2868 198.649L77.4068 198.099C77.6468 197.979 77.7468 197.679 77.6268 197.429L77.2668 196.709C77.3568 196.589 77.4468 196.459 77.5368 196.329C77.9768 195.589 78.6368 195.019 79.3968 194.639C80.2668 194.209 81.2668 194.049 82.2168 194.249L82.3068 194.269C85.0368 194.819 85.7468 198.299 84.1868 200.539L84.1668 200.519Z" fill="#171C24"/>
<path d="M75.4278 198.04L75.6078 198.41C75.7278 198.65 75.6278 198.96 75.3778 199.08L74.2578 199.63C74.0078 199.75 73.7078 199.65 73.5878 199.4L73.0378 198.28C73.0378 198.28 73.0078 198.23 73.0078 198.2C73.2178 198.2 73.4278 198.2 73.6378 198.22C74.2378 198.28 74.8478 198.22 75.4178 198.04H75.4278Z" fill="white"/>
<path d="M77.2575 196.699L77.6175 197.419C77.7375 197.659 77.6375 197.959 77.3975 198.089L76.2775 198.639C76.0375 198.759 75.7375 198.649 75.6175 198.409L75.4375 198.039C75.5875 197.989 75.7375 197.939 75.8875 197.869C76.4275 197.569 76.8875 197.169 77.2675 196.689L77.2575 196.699Z" fill="white"/>
<path d="M76.3358 197.986L74.3359 198.973L74.5793 199.466L76.5791 198.479L76.3358 197.986Z" fill="white"/>
<path d="M152.81 161.72L156.08 182.93L156.41 203.57L98.0897 212.55L95.9497 212.88L94.3297 213.65C94.2297 213.49 94.1497 213.33 94.0697 213.16C93.1697 211.36 92.6497 209.33 92.6097 207.18L92.0697 173.01L92.0497 172.13V171.23C91.9397 165.74 95.0497 160.94 99.6197 158.59C99.9197 158.44 100.22 158.29 100.53 158.17C102.14 157.48 103.91 157.08 105.77 157.05L141.72 156.47C141.86 156.47 142 156.47 142.15 156.47C146.45 156.52 150.31 158.55 152.83 161.69L152.81 161.72Z" fill="#9DF4B6"/>
<path d="M129.749 191.55C129.749 191.55 127.359 194.45 120.859 194.56" stroke="#171C24" stroke-width="1.65" stroke-linecap="round" stroke-linejoin="round"/>
<path d="M147.339 178.06C147.429 183.79 142.859 188.5 137.139 188.6C131.419 188.7 126.699 184.13 126.599 178.4C126.589 177.77 126.639 177.15 126.739 176.54L145.439 172.26C146.599 173.9 147.299 175.91 147.339 178.07V178.06Z" fill="white"/>
<path d="M136.95 177.25C137 180.1 134.73 182.44 131.89 182.48C129.05 182.52 126.7 180.26 126.66 177.41C126.66 177.11 126.68 176.82 126.73 176.53L136.04 174.39C136.61 175.21 136.94 176.18 136.96 177.24L136.95 177.25Z" fill="#171C24"/>
<path d="M101.23 178.73C101.32 184.46 106.05 189.02 111.77 188.93C117.5 188.84 122.06 184.12 121.97 178.39C121.96 177.76 121.89 177.14 121.77 176.54L102.95 172.86C101.84 174.53 101.2 176.57 101.24 178.72L101.23 178.73Z" fill="white"/>
<path d="M111.59 177.59C111.64 180.44 113.97 182.7 116.82 182.66C119.67 182.62 121.93 180.28 121.89 177.43C121.89 177.13 121.86 176.85 121.79 176.56L112.42 174.72C111.88 175.55 111.58 176.54 111.59 177.59Z" fill="#171C24"/>
<path d="M127.199 173.26L135.609 167.27" stroke="#171C24" stroke-width="1.47" stroke-linecap="round" stroke-linejoin="round"/>
<path d="M114.551 170.06L120.821 173.7" stroke="#171C24" stroke-width="1.47" stroke-linecap="round" stroke-linejoin="round"/>
<path d="M98.0903 212.54V212.56L95.9503 212.89L94.3303 213.66C94.2303 213.5 94.1503 213.34 94.0703 213.17L98.0903 212.53V212.54Z" fill="#A1A5B2"/>
<path d="M0 224.149V350.479C0 358.839 4.98 366.539 13.01 370.589L95.23 412.069C102.73 415.849 111.82 415.919 119.38 412.239L205.13 370.519C213.35 366.519 218.48 358.719 218.48 350.239V224.149C218.48 211.449 207.17 201.149 193.22 201.149H25.26C11.31 201.149 0 211.449 0 224.149Z" fill="#5453EE"/>
<path d="M11.0625 230.35C11.0625 230.21 12.6525 230.33 15.4625 230.71" stroke="#3635AA" stroke-width="4.44" stroke-linecap="round" stroke-linejoin="round"/>
<path d="M24.3906 232.1C55.9606 237.53 132.581 255.23 131.481 284.89C130.511 311.1 91.6406 313.34 91.7606 285.78C91.8906 255.86 157.371 231.89 202.341 228.72" stroke="#3635AA" stroke-width="4.44" stroke-linecap="round" stroke-linejoin="round" stroke-dasharray="9.04 9.04"/>
<path d="M206.863 228.47C208.373 228.41 209.853 228.38 211.303 228.37" stroke="#3635AA" stroke-width="4.44" stroke-linecap="round" stroke-linejoin="round"/>
<path d="M49.4051 299.402V302.231C49.4051 302.587 49.274 302.886 49.0305 303.111C48.787 303.336 48.4123 303.448 47.9253 303.448C47.4383 303.448 47.0637 303.336 46.8202 303.111C46.5767 302.886 46.4456 302.587 46.4456 302.231V299.402H40.2644C39.9085 299.402 39.6088 299.328 39.384 299.159C39.1593 298.99 39.0469 298.691 39.0469 298.26C39.0469 297.829 39.1593 297.529 39.384 297.361C39.6088 297.192 39.9085 297.117 40.2644 297.117H55.5863C55.9422 297.117 56.2419 297.192 56.4666 297.361C56.6914 297.529 56.8038 297.829 56.8038 298.26C56.8038 298.691 56.6914 298.99 56.4666 299.159C56.2419 299.328 55.9422 299.402 55.5863 299.402H49.4051ZM51.3906 289.119C51.5029 289.456 51.5779 289.793 51.5779 290.131C51.5779 290.842 51.4655 291.479 51.2407 292.06C51.0159 292.641 50.6975 293.165 50.3042 293.615C50.4915 293.652 50.6975 293.671 50.8848 293.69C51.0721 293.69 51.2782 293.708 51.4842 293.708C52.0461 293.708 52.5331 293.652 52.9452 293.465C53.3573 293.277 53.7507 293.034 54.1065 292.659C54.2377 292.528 54.3875 292.416 54.5374 292.36C54.6872 292.285 54.8745 292.266 55.0805 292.266C55.4177 292.266 55.6799 292.36 55.8672 292.566C56.0546 292.772 56.1669 293.015 56.1669 293.352C56.1669 293.783 56.0171 294.177 55.7361 294.495C55.4364 294.832 55.0805 295.094 54.6497 295.319C54.2189 295.544 53.7319 295.712 53.2075 295.825C52.683 295.937 52.196 295.993 51.7277 295.993C50.3416 295.993 49.0679 295.75 47.9441 295.282C46.8202 295.769 45.5652 295.993 44.1604 295.993C43.6921 295.993 43.2051 295.937 42.6807 295.825C42.1562 295.712 41.6692 295.544 41.2384 295.319C40.8076 295.094 40.433 294.813 40.152 294.495C39.8523 294.158 39.7212 293.783 39.7212 293.352C39.7212 293.015 39.8148 292.753 40.0209 292.566C40.2269 292.378 40.4704 292.266 40.8076 292.266C41.0136 292.266 41.2009 292.303 41.3508 292.36C41.5006 292.435 41.6505 292.528 41.7816 292.659C42.1375 293.015 42.5308 293.277 42.9429 293.465C43.355 293.652 43.842 293.708 44.4039 293.708C44.8347 293.708 45.2281 293.671 45.5652 293.615C45.1532 293.146 44.8535 292.622 44.6287 292.06C44.4039 291.479 44.3103 290.842 44.3103 290.131C44.3103 289.793 44.3665 289.456 44.4976 289.119H41.5381C41.1822 289.119 40.8825 289.044 40.6577 288.876C40.433 288.707 40.3206 288.407 40.3206 287.977C40.3206 287.546 40.433 287.246 40.6577 287.077C40.8825 286.909 41.1822 286.834 41.5381 286.834H46.4643V286.235C46.4643 285.879 46.5954 285.579 46.8389 285.354C47.0824 285.129 47.4571 285.017 47.9441 285.017C48.4311 285.017 48.8057 285.129 49.0492 285.354C49.2927 285.579 49.4238 285.879 49.4238 286.235V286.834H54.3875C54.7434 286.834 55.0431 286.909 55.2679 287.077C55.4926 287.246 55.605 287.546 55.605 287.977C55.605 288.407 55.4926 288.707 55.2679 288.876C55.0431 289.044 54.7434 289.119 54.3875 289.119H51.428H51.3906ZM47.9253 289.119C47.6631 289.119 47.4758 289.213 47.3259 289.381C47.1761 289.55 47.1012 289.831 47.1012 290.224C47.1012 290.711 47.1761 291.123 47.3259 291.498C47.4758 291.873 47.6818 292.191 47.9253 292.453C48.1876 292.191 48.3749 291.873 48.5247 291.498C48.6746 291.123 48.7495 290.711 48.7495 290.224C48.7495 289.831 48.6746 289.55 48.5247 289.381C48.3749 289.213 48.1688 289.119 47.9253 289.119Z" fill="white"/>
<path d="M75.2735 293.916C75.2735 294.271 75.1424 294.571 74.8989 294.796C74.6554 295.021 74.2808 295.133 73.7938 295.133C73.3067 295.133 72.9321 295.021 72.6886 294.796C72.4451 294.571 72.314 294.271 72.314 293.916V291.705H69.7291C69.5793 292.323 69.3171 292.829 68.9424 293.241C68.5678 293.653 68.137 293.972 67.6313 294.215C67.1255 294.459 66.5823 294.646 65.983 294.74C65.3836 294.852 64.7842 294.89 64.1661 294.89C63.4543 294.89 62.7612 294.815 62.0869 294.684C61.4126 294.534 60.7945 294.309 60.2513 293.972C59.7081 293.635 59.2773 293.204 58.9401 292.642C58.603 292.08 58.4531 291.387 58.4531 290.544C58.4531 289.589 58.6779 288.783 59.1274 288.165C59.577 287.528 60.1764 287.041 60.9069 286.667C61.6374 286.292 62.4803 286.049 63.4168 285.899C64.3534 285.749 65.3274 285.674 66.3201 285.674C66.7135 285.674 67.0132 285.786 67.2005 286.011C67.4065 286.236 67.5002 286.498 67.5002 286.817C67.5002 286.892 67.5002 286.948 67.4814 287.004C68.0246 287.191 68.4929 287.472 68.8675 287.884C69.2609 288.296 69.5418 288.802 69.6917 289.401H72.2953V286.667C72.2953 286.311 72.4264 286.011 72.6699 285.786C72.9134 285.562 73.288 285.449 73.775 285.449C74.262 285.449 74.6366 285.562 74.8801 285.786C75.1236 286.011 75.2548 286.311 75.2548 286.667V293.934L75.2735 293.916ZM71.2089 302.438C71.2089 302.176 71.2463 301.932 71.34 301.745C71.4337 301.558 71.5086 301.352 71.6022 301.108C71.6959 300.865 71.7708 300.565 71.8645 300.228C71.9581 299.891 71.9956 299.404 71.9956 298.823V298.224H61.7872C61.4313 298.224 61.1316 298.149 60.9069 297.98C60.6821 297.812 60.5697 297.512 60.5697 297.081C60.5697 296.65 60.6821 296.351 60.9069 296.182C61.1316 296.013 61.4313 295.939 61.7872 295.939H74.4119C74.7678 295.939 75.0675 296.013 75.2922 296.182C75.517 296.351 75.6294 296.65 75.6294 297.081C75.6294 297.4 75.5732 297.643 75.4421 297.793C75.311 297.943 75.1611 298.074 74.9551 298.149V298.823C74.9551 299.441 74.8989 300.022 74.7678 300.584C74.6554 301.146 74.4868 301.633 74.2808 302.064C74.0747 302.494 73.8125 302.832 73.4941 303.075C73.1756 303.319 72.8385 303.45 72.4639 303.45C72.0892 303.45 71.7895 303.356 71.5648 303.15C71.34 302.963 71.2276 302.719 71.2276 302.438H71.2089ZM66.9008 290.581C66.9008 290.094 66.8071 289.776 66.6385 289.626C66.47 289.476 66.2639 289.345 66.0579 289.27C65.8331 289.195 65.6271 289.102 65.4398 288.989C65.2525 288.877 65.1213 288.615 65.0839 288.221C64.6718 288.259 64.241 288.315 63.8102 288.39C63.3794 288.465 62.986 288.577 62.6301 288.727C62.2742 288.877 61.9933 289.102 61.7685 289.401C61.5437 289.701 61.4313 290.094 61.4313 290.581C61.4313 291.218 61.6748 291.705 62.1618 292.08C62.6489 292.455 63.3232 292.623 64.1661 292.623C65.0089 292.623 65.6833 292.436 66.1703 292.08C66.6573 291.705 66.9008 291.218 66.9008 290.581Z" fill="white"/>
<path d="M78.4792 295.02C78.1233 295.02 77.8236 294.945 77.5989 294.777C77.3741 294.608 77.2617 294.308 77.2617 293.877C77.2617 293.447 77.3741 293.147 77.5989 292.978C77.8236 292.81 78.1233 292.735 78.4792 292.735H93.8011C94.157 292.735 94.4567 292.81 94.6815 292.978C94.9063 293.147 95.0186 293.447 95.0186 293.877C95.0186 294.308 94.9063 294.608 94.6815 294.777C94.4567 294.945 94.157 295.02 93.8011 295.02H78.4792ZM81.4574 300.696C81.42 300.827 81.3825 300.958 81.3825 301.07C81.3825 301.183 81.42 301.295 81.4762 301.37C81.5324 301.445 81.6635 301.482 81.8883 301.482H82.3378C84.6979 301.482 86.7583 301.464 88.4815 301.407C90.2048 301.37 91.7033 301.295 92.977 301.22C93.3141 301.183 93.6138 301.239 93.8386 301.389C94.0634 301.538 94.1945 301.801 94.1945 302.213C94.1945 302.569 94.1008 302.812 93.9135 302.962C93.7262 303.093 93.4078 303.187 92.977 303.205C92.3214 303.243 91.6283 303.299 90.8978 303.337C90.1673 303.374 89.3806 303.393 88.519 303.412C87.6574 303.412 86.7208 303.43 85.6906 303.449C84.6604 303.449 83.5366 303.449 82.2816 303.449H80.3898C80.0152 303.449 79.6967 303.412 79.4532 303.318C79.2097 303.224 79.0037 303.112 78.8538 302.943C78.704 302.775 78.5916 302.606 78.5167 302.4C78.4418 302.194 78.423 301.969 78.423 301.726C78.423 301.276 78.5167 300.902 78.7227 300.602C78.3856 300.452 78.1983 300.152 78.1983 299.703C78.1983 299.328 78.3107 299.066 78.5354 298.935C78.7602 298.804 79.0599 298.729 79.4158 298.729H90.8416C90.8791 298.616 90.8791 298.523 90.8791 298.467C90.8791 298.354 90.8416 298.223 90.7854 298.111C90.7293 297.998 90.5981 297.923 90.3734 297.923H79.5094C79.1535 297.923 78.8538 297.848 78.6291 297.717C78.4043 297.567 78.2919 297.324 78.2919 296.949C78.2919 296.575 78.4043 296.313 78.6291 296.181C78.8538 296.032 79.1535 295.975 79.5094 295.975H91.8531C92.2277 295.975 92.5462 296.013 92.7897 296.106C93.0332 296.2 93.2392 296.313 93.389 296.481C93.5389 296.65 93.6513 296.818 93.7262 297.024C93.8011 297.23 93.8199 297.455 93.8199 297.699C93.8199 298.148 93.7075 298.541 93.4827 298.86C93.8573 298.991 94.0446 299.291 94.0446 299.74C94.0446 300.115 93.9322 300.377 93.7075 300.508C93.4827 300.658 93.183 300.714 92.8271 300.714H81.4387L81.4574 300.696ZM92.902 291.536C92.5649 291.536 92.3214 291.424 92.1528 291.218C91.9842 290.993 91.7969 290.731 91.5721 290.412C90.8042 290.843 89.8676 291.199 88.725 291.461C87.5825 291.723 86.2526 291.873 84.7166 291.873C83.574 291.873 82.6 291.798 81.7946 291.63C80.9892 291.48 80.3336 291.255 79.8091 290.993C79.2847 290.731 78.9288 290.394 78.6853 290.019C78.4418 289.644 78.3294 289.232 78.3294 288.783C78.3294 288.333 78.4418 287.921 78.6853 287.528C78.9288 287.153 79.3034 286.816 79.8091 286.554C80.3149 286.291 80.9704 286.067 81.7946 285.917C82.6 285.767 83.574 285.673 84.7166 285.673C86.2526 285.673 87.6012 285.823 88.7438 286.123C89.8864 286.423 90.8416 286.797 91.5909 287.247C91.7969 286.947 91.9842 286.704 92.1715 286.498C92.3401 286.291 92.5836 286.198 92.902 286.198C93.2205 286.198 93.5014 286.291 93.7637 286.46C94.0259 286.647 94.1383 286.91 94.1383 287.247C94.1383 287.734 93.9135 288.277 93.4827 288.839C93.9135 289.438 94.1383 289.981 94.1383 290.45C94.1383 290.787 94.0072 291.049 93.7637 291.236C93.5014 291.424 93.2205 291.499 92.902 291.499V291.536ZM84.7166 289.588C85.9154 289.588 86.9081 289.513 87.6948 289.382C88.4815 289.232 89.1371 289.064 89.6616 288.839C89.1371 288.595 88.4815 288.408 87.6948 288.239C86.9081 288.071 85.9154 287.996 84.7166 287.996C84.2296 287.996 83.7801 287.996 83.368 288.033C82.9559 288.071 82.5813 288.108 82.2816 288.183C81.9819 288.258 81.7384 288.333 81.5698 288.446C81.4013 288.558 81.3076 288.67 81.3076 288.801C81.3076 288.933 81.4013 289.045 81.5698 289.157C81.7384 289.251 81.9819 289.345 82.2816 289.401C82.5813 289.476 82.9559 289.513 83.368 289.551C83.7801 289.588 84.2296 289.588 84.7166 289.588Z" fill="white"/>
<path d="M113.915 287.06C113.915 287.379 113.859 287.622 113.728 287.772C113.615 287.94 113.447 288.053 113.241 288.128C113.203 289.214 112.96 290.226 112.491 291.125C112.023 292.024 111.386 292.792 110.562 293.447C109.738 294.103 108.764 294.609 107.621 294.965C106.479 295.32 105.243 295.508 103.894 295.508C103.501 295.508 103.201 295.395 102.957 295.152C102.714 294.908 102.602 294.609 102.602 294.234C102.602 294.065 102.602 293.916 102.639 293.747C102.676 293.578 102.733 293.447 102.826 293.316C102.92 293.185 103.051 293.091 103.201 293.017C103.37 292.942 103.576 292.904 103.838 292.904C104.849 292.904 105.767 292.773 106.554 292.511C107.34 292.249 107.996 291.893 108.539 291.462C109.082 291.012 109.495 290.525 109.794 289.963C110.094 289.401 110.244 288.821 110.281 288.203H103.988C103.632 288.203 103.332 288.128 103.107 287.959C102.883 287.791 102.77 287.491 102.77 287.06C102.77 286.629 102.883 286.33 103.107 286.161C103.332 285.992 103.632 285.917 103.988 285.917H112.716C113.072 285.917 113.372 285.992 113.597 286.161C113.821 286.33 113.934 286.629 113.934 287.06H113.915ZM110.188 301.164C111.461 301.164 112.716 301.071 113.934 300.902C115.17 300.734 116.406 300.509 117.68 300.265C117.867 300.228 118.073 300.209 118.261 300.228C118.448 300.247 118.635 300.303 118.785 300.378C118.935 300.453 119.066 300.565 119.16 300.715C119.253 300.865 119.31 301.052 119.31 301.277C119.31 301.539 119.235 301.801 119.085 302.026C118.935 302.251 118.691 302.419 118.336 302.494C115.526 303.131 112.566 303.468 109.438 303.468C108.783 303.468 108.165 303.431 107.584 303.356C107.003 303.281 106.498 303.15 106.067 302.944C105.636 302.738 105.28 302.457 105.018 302.082C104.756 301.708 104.606 301.221 104.587 300.64C104.55 299.984 104.606 299.366 104.756 298.804C104.905 298.242 105.112 297.681 105.411 297.137C105.58 296.838 105.786 296.613 106.048 296.482C106.31 296.351 106.573 296.276 106.835 296.276C107.191 296.276 107.528 296.388 107.846 296.594C108.165 296.819 108.314 297.1 108.296 297.456C108.296 297.643 108.258 297.793 108.183 297.943C108.108 298.093 108.015 298.242 107.921 298.43C107.827 298.617 107.734 298.823 107.659 299.067C107.584 299.31 107.547 299.61 107.547 299.966C107.547 300.453 107.753 300.771 108.146 300.94C108.539 301.108 109.214 301.183 110.15 301.183L110.188 301.164ZM118.879 290.656H120.546C120.902 290.656 121.201 290.731 121.426 290.9C121.651 291.068 121.763 291.368 121.763 291.799C121.763 292.23 121.651 292.53 121.426 292.698C121.201 292.867 120.902 292.942 120.546 292.942H118.879V296.95C118.879 297.306 118.748 297.606 118.504 297.83C118.261 298.055 117.886 298.168 117.399 298.168C116.912 298.168 116.537 298.055 116.294 297.83C116.05 297.606 115.919 297.306 115.919 296.95V286.667C115.919 286.311 116.05 286.011 116.294 285.786C116.537 285.562 116.912 285.449 117.399 285.449C117.886 285.449 118.261 285.562 118.504 285.786C118.748 286.011 118.879 286.311 118.879 286.667V290.675V290.656Z" fill="white"/>
<path d="M128.841 295.358C127.83 295.358 126.874 295.283 125.975 295.152C125.076 295.002 124.29 294.815 123.634 294.552C123.297 294.421 123.016 294.271 122.791 294.084C122.566 293.915 122.473 293.653 122.473 293.316C122.473 292.941 122.566 292.642 122.772 292.436C122.978 292.23 123.241 292.117 123.597 292.117C123.765 292.117 123.934 292.136 124.084 292.192C124.233 292.248 124.439 292.305 124.645 292.379V288.221H124.065C123.709 288.221 123.409 288.146 123.184 287.978C122.96 287.809 122.847 287.509 122.847 287.079C122.847 286.648 122.96 286.348 123.184 286.18C123.409 286.011 123.709 285.936 124.065 285.936H133.636C133.992 285.936 134.292 286.011 134.517 286.18C134.741 286.348 134.854 286.648 134.854 287.079C134.854 287.154 134.854 287.21 134.854 287.266C134.854 287.303 134.835 287.36 134.816 287.416C134.891 287.416 134.966 287.397 135.022 287.378C135.097 287.378 135.153 287.378 135.228 287.378H136.596V286.685C136.596 286.329 136.727 286.03 136.97 285.805C137.214 285.58 137.589 285.468 138.076 285.468C138.563 285.468 138.937 285.58 139.181 285.805C139.424 286.03 139.555 286.329 139.555 286.685V296.987C139.555 297.343 139.424 297.643 139.181 297.868C138.937 298.092 138.563 298.205 138.076 298.205C137.589 298.205 137.214 298.092 136.97 297.868C136.727 297.643 136.596 297.343 136.596 296.987V292.717H135.097C135.191 292.904 135.228 293.11 135.228 293.353C135.228 293.691 135.116 293.953 134.91 294.121C134.685 294.29 134.404 294.44 134.067 294.59C133.412 294.852 132.625 295.039 131.726 295.189C130.827 295.339 129.871 295.395 128.86 295.395L128.841 295.358ZM130.19 301.164C131.632 301.164 132.999 301.071 134.273 300.902C135.566 300.733 136.933 300.509 138.356 300.265C138.544 300.228 138.75 300.228 138.937 300.246C139.124 300.246 139.312 300.303 139.462 300.396C139.611 300.471 139.743 300.584 139.836 300.733C139.93 300.883 139.986 301.052 139.986 301.277C139.986 301.539 139.911 301.801 139.761 302.026C139.611 302.251 139.368 302.419 139.012 302.494C137.42 302.831 135.865 303.075 134.329 303.225C132.793 303.375 131.164 303.468 129.441 303.468C128.785 303.468 128.167 303.431 127.586 303.356C127.006 303.281 126.5 303.15 126.069 302.944C125.638 302.738 125.282 302.457 125.02 302.082C124.758 301.707 124.608 301.22 124.589 300.64C124.552 299.984 124.608 299.366 124.758 298.804C124.908 298.242 125.114 297.68 125.413 297.137C125.582 296.837 125.788 296.613 126.05 296.482C126.312 296.35 126.575 296.276 126.837 296.276C127.193 296.276 127.53 296.388 127.848 296.594C128.167 296.819 128.317 297.1 128.298 297.456C128.298 297.643 128.261 297.793 128.186 297.943C128.111 298.092 128.017 298.242 127.923 298.43C127.83 298.617 127.736 298.823 127.661 299.066C127.586 299.31 127.549 299.61 127.549 299.966C127.549 300.453 127.755 300.771 128.148 300.94C128.541 301.108 129.216 301.183 130.152 301.183L130.19 301.164ZM129.328 293.073C129.609 292.155 129.815 291.331 129.909 290.581C130.002 289.832 130.059 289.045 130.059 288.221H127.586V293.035C127.774 293.035 127.961 293.054 128.167 293.073C128.373 293.073 128.598 293.073 128.822 293.073H129.309H129.328ZM133.037 288.221C133.037 289.645 132.775 291.106 132.288 292.623C132.7 292.511 133.018 292.398 133.28 292.286C133.543 292.173 133.805 292.136 134.086 292.136C134.03 292.024 133.992 291.836 133.992 291.593C133.992 291.181 134.105 290.9 134.329 290.731C134.554 290.563 134.854 290.488 135.21 290.488H136.577V289.57H135.21C134.854 289.57 134.554 289.495 134.329 289.326C134.105 289.158 133.992 288.877 133.992 288.465C133.992 288.352 133.992 288.259 134.011 288.202C133.936 288.202 133.861 288.221 133.805 288.221H133.018H133.037Z" fill="white"/>
<path d="M147.764 302.513C146.753 302.513 145.91 302.307 145.198 301.914C144.487 301.52 143.925 300.977 143.475 300.303C143.026 299.628 142.688 298.842 142.482 297.924C142.276 297.025 142.164 296.051 142.164 295.039C142.164 293.897 142.295 292.867 142.576 291.911C142.838 290.975 143.269 290.188 143.85 289.551H142.464C142.108 289.551 141.808 289.476 141.583 289.308C141.358 289.139 141.246 288.839 141.246 288.409C141.246 287.978 141.358 287.678 141.583 287.509C141.808 287.341 142.108 287.266 142.464 287.266H146.285V286.217C146.285 285.861 146.416 285.561 146.659 285.337C146.903 285.112 147.277 285 147.764 285C148.251 285 148.626 285.112 148.87 285.337C149.113 285.561 149.244 285.861 149.244 286.217V287.266H153.065C153.421 287.266 153.721 287.341 153.946 287.509C154.17 287.678 154.283 287.978 154.283 288.409C154.283 288.839 154.17 289.139 153.946 289.308C153.721 289.476 153.421 289.551 153.065 289.551H151.679C152.241 290.188 152.672 290.975 152.953 291.911C153.234 292.848 153.365 293.897 153.365 295.039C153.365 296.051 153.253 297.025 153.047 297.924C152.841 298.823 152.503 299.628 152.054 300.303C151.604 300.977 151.024 301.52 150.331 301.914C149.638 302.307 148.776 302.513 147.764 302.513ZM150.406 294.889C150.406 294.178 150.368 293.503 150.274 292.866C150.199 292.23 150.05 291.649 149.844 291.162C149.638 290.675 149.375 290.282 149.038 290.001C148.701 289.701 148.27 289.57 147.764 289.57C147.259 289.57 146.828 289.72 146.491 290.001C146.154 290.3 145.891 290.675 145.685 291.162C145.479 291.649 145.348 292.211 145.255 292.866C145.18 293.503 145.123 294.178 145.123 294.889C145.123 295.601 145.161 296.276 145.255 296.912C145.329 297.549 145.479 298.13 145.685 298.617C145.891 299.104 146.154 299.497 146.491 299.778C146.828 300.078 147.259 300.209 147.764 300.209C148.27 300.209 148.701 300.059 149.038 299.778C149.375 299.479 149.638 299.104 149.844 298.617C150.05 298.13 150.181 297.568 150.274 296.912C150.349 296.276 150.406 295.601 150.406 294.889ZM157.992 292.567H159.659C160.014 292.567 160.314 292.642 160.539 292.81C160.764 292.979 160.876 293.279 160.876 293.709C160.876 294.14 160.764 294.44 160.539 294.608C160.314 294.777 160.014 294.852 159.659 294.852H157.992V302.232C157.992 302.588 157.86 302.888 157.617 303.112C157.373 303.337 156.999 303.449 156.512 303.449C156.025 303.449 155.65 303.337 155.407 303.112C155.163 302.888 155.032 302.588 155.032 302.232V286.667C155.032 286.311 155.163 286.011 155.407 285.786C155.65 285.561 156.025 285.449 156.512 285.449C156.999 285.449 157.373 285.561 157.617 285.786C157.86 286.011 157.992 286.311 157.992 286.667V292.586V292.567Z" fill="white"/>
<path d="M175.786 302.232C175.786 302.588 175.673 302.888 175.43 303.112C175.186 303.337 174.83 303.45 174.343 303.45C173.856 303.45 173.501 303.337 173.257 303.112C173.014 302.888 172.901 302.588 172.901 302.232V295.077H169.642C169.117 296.463 168.387 297.737 167.469 298.935C166.533 300.134 165.39 301.183 164.023 302.064C163.835 302.176 163.667 302.27 163.479 302.307C163.292 302.345 163.105 302.363 162.899 302.363C162.505 302.363 162.224 302.232 162.018 301.989C161.831 301.726 161.719 301.427 161.719 301.09C161.719 300.64 161.962 300.247 162.468 299.928C163.517 299.273 164.397 298.523 165.109 297.662C165.821 296.819 166.401 295.92 166.832 294.965C167.263 294.009 167.582 293.035 167.769 292.024C167.956 291.012 168.05 290.02 168.05 289.027V288.446H163.105C162.749 288.446 162.449 288.371 162.224 288.203C162 288.034 161.887 287.734 161.887 287.304C161.887 286.873 162 286.573 162.224 286.404C162.449 286.236 162.749 286.161 163.105 286.161H170.26C170.616 286.161 170.916 286.236 171.14 286.404C171.365 286.573 171.478 286.873 171.478 287.304C171.478 287.622 171.421 287.866 171.29 288.015C171.178 288.184 171.009 288.296 170.803 288.371V289.027C170.803 290.319 170.653 291.574 170.372 292.81H172.92V286.667C172.92 286.311 173.032 286.011 173.276 285.786C173.519 285.562 173.875 285.449 174.362 285.449C174.849 285.449 175.205 285.562 175.449 285.786C175.692 286.011 175.804 286.311 175.804 286.667V302.251L175.786 302.232ZM180.019 302.232C180.019 302.588 179.906 302.888 179.663 303.112C179.419 303.337 179.064 303.45 178.577 303.45C178.09 303.45 177.734 303.337 177.49 303.112C177.247 302.888 177.134 302.588 177.134 302.232V286.667C177.134 286.311 177.247 286.011 177.49 285.786C177.734 285.562 178.09 285.449 178.577 285.449C179.064 285.449 179.419 285.562 179.663 285.786C179.906 286.011 180.019 286.311 180.019 286.667V302.251V302.232Z" fill="white"/>
<path d="M41.2494 344.185C40.6056 344.185 40.0634 344.049 39.6568 343.744C39.2502 343.439 39.0469 342.897 39.0469 342.118C39.0469 341.338 39.2502 340.796 39.6568 340.491C40.0634 340.186 40.6056 340.051 41.2494 340.051H52.4312V336.595C52.4312 335.951 52.6684 335.409 53.1089 335.002C53.5494 334.595 54.2271 334.392 55.1081 334.392C55.989 334.392 56.6667 334.595 57.1072 335.002C57.5477 335.409 57.7849 335.951 57.7849 336.595V340.051H68.9668C69.6106 340.051 70.1527 340.186 70.5593 340.491C70.9659 340.796 71.1692 341.338 71.1692 342.118C71.1692 342.897 70.9659 343.439 70.5593 343.744C70.1527 344.049 69.6106 344.185 68.9668 344.185H41.2494ZM55.1081 333.545C52.1601 333.545 49.6188 333.409 47.5518 333.105C45.451 332.8 43.7907 332.461 42.5031 332.054C41.8932 331.851 41.351 331.58 40.9444 331.275C40.5378 330.97 40.3006 330.495 40.3006 329.885C40.3006 329.208 40.5039 328.666 40.9444 328.293C41.351 327.92 41.8932 327.717 42.5031 327.717C42.9775 327.717 43.4518 327.819 43.8923 327.988C44.3328 328.191 44.9766 328.395 45.8915 328.598V317.857H43.2146C42.5708 317.857 42.0287 317.721 41.6221 317.416C41.2155 317.111 41.0122 316.569 41.0122 315.79C41.0122 315.01 41.2155 314.468 41.6221 314.163C42.0287 313.858 42.5708 313.723 43.2146 313.723H67.0353C67.6791 313.723 68.2213 313.858 68.6279 314.163C69.0345 314.468 69.2378 315.01 69.2378 315.79C69.2378 316.569 69.0345 317.111 68.6279 317.416C68.2213 317.721 67.6791 317.857 67.0353 317.857H64.3585V318.941C64.3585 320.601 64.2907 322.228 64.1552 323.854C64.0196 325.481 63.7824 327.107 63.4097 328.801C64.0535 328.7 64.5957 328.564 65.0023 328.428C65.4089 328.293 65.7816 328.157 66.0866 328.056C66.3915 327.954 66.6626 327.852 66.8998 327.785C67.137 327.717 67.4081 327.683 67.713 327.683C68.3229 327.683 68.8651 327.886 69.2717 328.259C69.6783 328.632 69.9155 329.174 69.9155 329.852C69.9155 330.462 69.7122 330.936 69.2717 331.241C68.8651 331.546 68.3229 331.817 67.713 332.02C66.4254 332.427 64.7651 332.766 62.6643 333.071C60.5634 333.376 58.056 333.511 55.1081 333.511V333.545ZM57.9205 329.343C58.2932 327.615 58.5643 325.887 58.7337 324.159C58.9031 322.431 58.9709 320.703 58.9709 318.941V317.857H51.2452V329.309C51.7874 329.309 52.3634 329.343 53.0072 329.377C53.651 329.377 54.3287 329.377 55.1081 329.377H56.5651C57.0395 329.377 57.48 329.377 57.9205 329.343Z" fill="white"/>
<path d="M99.3639 327.752C99.3639 328.396 99.1606 328.938 98.7201 329.345C98.2796 329.752 97.6358 329.955 96.7548 329.955C95.8738 329.955 95.23 329.752 94.7895 329.345C94.3491 328.938 94.1457 328.396 94.1457 327.752V323.754H88.4871C87.4705 325.448 85.9457 326.871 83.9466 327.956C81.9474 329.04 79.3722 329.684 76.2548 329.819C75.5432 329.819 75.0011 329.684 74.5606 329.311C74.1201 328.938 73.9168 328.43 73.9168 327.752C73.9168 327.143 74.0523 326.702 74.3234 326.363C74.5945 326.024 75.2044 325.821 76.1532 325.787C77.7118 325.719 78.9994 325.448 80.0499 325.042C81.1003 324.635 81.9813 324.127 82.6928 323.483H75.9837C75.3399 323.483 74.7978 323.347 74.3912 323.043C73.9846 322.738 73.7812 322.195 73.7812 321.416C73.7812 320.637 73.9846 320.095 74.3912 319.79C74.7978 319.485 75.3399 319.349 75.9837 319.349H85.0986C85.2003 318.705 85.3019 318.062 85.3358 317.452H76.3903C75.7465 317.452 75.2044 317.316 74.7978 317.011C74.3912 316.706 74.1879 316.164 74.1879 315.385C74.1879 314.605 74.3912 314.063 74.7978 313.758C75.2044 313.453 75.7465 313.318 76.3903 313.318H89.3342C89.978 313.318 90.5201 313.453 90.9267 313.758C91.3333 314.063 91.5366 314.605 91.5366 315.385C91.5366 315.961 91.435 316.401 91.1978 316.672C90.9945 316.977 90.6895 317.181 90.3168 317.316C90.3168 318.062 90.2152 318.841 90.0796 319.62H94.1457V314.605C94.1457 313.962 94.3491 313.419 94.7895 313.013C95.23 312.606 95.8738 312.403 96.7548 312.403C97.6358 312.403 98.2796 312.606 98.7201 313.013C99.1606 313.419 99.3639 313.962 99.3639 314.605V327.752ZM85.268 336.766C85.268 334.902 85.8102 333.479 86.9284 332.462C88.0127 331.48 89.673 330.971 91.8755 330.971C94.078 330.971 95.7044 331.48 96.8226 332.53C97.9069 333.547 98.4829 334.97 98.4829 336.766C98.4829 338.324 97.9747 339.714 96.9243 340.9C97.0598 340.9 97.1953 340.933 97.3648 340.933H97.8053C100.753 340.933 102.888 340.29 104.176 338.968C104.413 338.731 104.684 338.528 104.955 338.426C105.226 338.29 105.565 338.257 105.937 338.257C106.649 338.257 107.157 338.46 107.496 338.867C107.835 339.273 108.004 339.781 108.004 340.357C108.004 341.238 107.699 341.95 107.09 342.526C106.48 343.102 105.7 343.576 104.785 343.949C103.871 344.322 102.82 344.593 101.702 344.728C100.584 344.898 99.4995 344.966 98.5168 344.966C97.3309 344.966 96.1788 344.864 95.0606 344.695C93.9424 344.525 92.892 344.288 91.9433 343.983C90.9267 344.288 89.8763 344.525 88.792 344.695C87.7077 344.864 86.5556 344.966 85.3697 344.966C84.3532 344.966 83.3028 344.898 82.1846 344.728C81.0664 344.559 80.016 344.288 79.1011 343.949C78.1523 343.576 77.4069 343.102 76.797 342.526C76.187 341.95 75.8821 341.205 75.8821 340.357C75.8821 339.747 76.0515 339.273 76.3903 338.867C76.7292 338.46 77.2375 338.257 77.949 338.257C78.3218 338.257 78.6606 338.324 78.9317 338.426C79.2027 338.528 79.4738 338.731 79.711 338.968C81.0325 340.29 83.1672 340.933 86.0813 340.933H86.4879C86.4879 340.933 86.759 340.933 86.8945 340.9C85.878 339.747 85.4036 338.358 85.4036 336.766H85.268ZM90.3507 336.901C90.3507 337.477 90.4862 337.986 90.7573 338.426C91.0284 338.867 91.4011 339.273 91.8416 339.578C92.316 339.239 92.6548 338.867 92.9259 338.426C93.197 337.986 93.3325 337.477 93.3325 336.901C93.3325 336.257 93.197 335.783 92.9259 335.512C92.6548 335.241 92.2821 335.105 91.8416 335.105C91.4011 335.105 91.0284 335.241 90.7573 335.512C90.4862 335.783 90.3507 336.257 90.3507 336.901ZM107.022 328.566C107.022 329.209 106.818 329.752 106.378 330.158C105.938 330.565 105.294 330.768 104.413 330.768C103.532 330.768 102.888 330.565 102.447 330.158C102.007 329.752 101.804 329.209 101.804 328.566V314.605C101.804 313.962 102.007 313.419 102.447 313.013C102.888 312.606 103.532 312.403 104.413 312.403C105.294 312.403 105.938 312.606 106.378 313.013C106.818 313.419 107.022 313.962 107.022 314.605V328.566Z" fill="white"/>
<path d="M117.798 339.138C118.374 339.138 118.882 339.138 119.39 339.036C119.865 338.968 120.373 338.833 120.915 338.663C121.457 338.494 121.999 338.257 122.609 337.986C123.219 337.714 123.931 337.342 124.71 336.901C125.049 336.698 125.422 336.596 125.794 336.596C126.167 336.596 126.506 336.63 126.811 336.766C127.116 336.901 127.353 337.105 127.556 337.376C127.76 337.647 127.861 337.986 127.861 338.358C127.861 338.833 127.76 339.307 127.522 339.714C127.285 340.12 126.811 340.527 126.133 340.9C125.388 341.306 124.642 341.645 123.931 341.95C123.219 342.255 122.474 342.492 121.762 342.695C121.017 342.899 120.271 343.034 119.458 343.136C118.645 343.238 117.764 343.271 116.781 343.271C114.68 343.271 113.223 342.662 112.342 341.476C111.461 340.29 111.055 338.595 111.055 336.427C111.055 334.8 111.122 333.106 111.292 331.31C111.461 329.514 111.665 327.752 111.936 325.99C112.207 324.228 112.546 322.466 112.918 320.738C113.291 319.01 113.698 317.384 114.138 315.825C114.375 314.978 114.714 314.334 115.189 313.928C115.629 313.487 116.307 313.284 117.154 313.284C117.967 313.284 118.577 313.555 118.984 314.097C119.39 314.639 119.424 315.452 119.119 316.571C118.713 317.926 118.34 319.315 117.967 320.772C117.628 322.195 117.289 323.754 117.018 325.381C116.747 327.007 116.544 328.735 116.375 330.565C116.205 332.395 116.137 334.36 116.137 336.427C116.137 337.308 116.273 337.986 116.544 338.46C116.815 338.934 117.256 339.138 117.899 339.138H117.798ZM135.96 342.797C135.96 343.441 135.756 343.983 135.316 344.39C134.875 344.796 134.232 345 133.351 345C132.47 345 131.826 344.796 131.385 344.39C130.945 343.983 130.741 343.441 130.741 342.797V329.04H123.863C123.219 329.04 122.677 328.905 122.27 328.6C121.864 328.295 121.66 327.752 121.66 326.973C121.66 326.194 121.864 325.652 122.27 325.347C122.677 325.042 123.219 324.906 123.863 324.906H130.741V314.605C130.741 313.962 130.945 313.419 131.385 313.013C131.826 312.606 132.47 312.403 133.351 312.403C134.232 312.403 134.875 312.606 135.316 313.013C135.756 313.419 135.96 313.962 135.96 314.605V342.797ZM143.618 342.797C143.618 343.441 143.414 343.983 142.974 344.39C142.533 344.796 141.889 345 141.008 345C140.127 345 139.484 344.796 139.043 344.39C138.603 343.983 138.399 343.441 138.399 342.797V314.605C138.399 313.962 138.603 313.419 139.043 313.013C139.484 312.606 140.127 312.403 141.008 312.403C141.889 312.403 142.533 312.606 142.974 313.013C143.414 313.419 143.618 313.962 143.618 314.605V342.797Z" fill="white"/>
<path d="M167.57 315.351C167.57 315.927 167.469 316.367 167.232 316.638C167.028 316.943 166.723 317.147 166.351 317.282C166.283 319.044 165.842 320.704 164.995 322.229C164.148 323.754 162.996 325.076 161.505 326.228C160.014 327.38 158.252 328.227 156.185 328.871C154.118 329.514 151.882 329.819 149.442 329.819C148.731 329.819 148.189 329.616 147.748 329.176C147.308 328.735 147.104 328.193 147.104 327.515C147.104 327.21 147.104 326.939 147.172 326.668C147.24 326.397 147.341 326.194 147.511 325.99C147.68 325.787 147.918 325.618 148.189 325.516C148.494 325.381 148.866 325.347 149.341 325.347C150.899 325.347 152.289 325.177 153.542 324.838C154.796 324.5 155.88 324.059 156.829 323.483H149.171C148.527 323.483 147.985 323.347 147.579 323.043C147.172 322.738 146.969 322.195 146.969 321.416C146.969 320.637 147.172 320.095 147.579 319.79C147.985 319.485 148.527 319.349 149.171 319.349H160.522C160.794 318.705 160.929 318.062 160.963 317.452H149.578C148.934 317.452 148.392 317.316 147.985 317.011C147.579 316.706 147.375 316.164 147.375 315.385C147.375 314.605 147.579 314.063 147.985 313.758C148.392 313.453 148.934 313.318 149.578 313.318H165.368C166.012 313.318 166.554 313.453 166.961 313.758C167.367 314.063 167.57 314.605 167.57 315.385V315.351ZM157.236 336.766C157.236 334.902 157.778 333.479 158.896 332.462C159.98 331.48 161.641 330.971 163.843 330.971C166.046 330.971 167.672 331.48 168.79 332.53C169.875 333.547 170.451 334.97 170.451 336.766C170.451 338.324 169.942 339.714 168.892 340.9C168.994 340.9 169.095 340.9 169.197 340.9C169.299 340.9 169.4 340.9 169.536 340.9C170.925 340.9 172.145 340.764 173.161 340.425C174.212 340.086 175.059 339.578 175.703 338.934C175.94 338.697 176.211 338.494 176.482 338.392C176.753 338.257 177.092 338.223 177.465 338.223C178.176 338.223 178.684 338.426 179.023 338.833C179.362 339.239 179.532 339.748 179.532 340.324C179.532 341.205 179.227 341.916 178.617 342.492C178.007 343.068 177.227 343.543 176.313 343.915C175.398 344.288 174.381 344.559 173.297 344.695C172.213 344.864 171.162 344.932 170.213 344.932C169.061 344.932 167.977 344.864 166.893 344.695C165.808 344.525 164.792 344.288 163.843 343.949C161.878 344.593 159.777 344.932 157.473 344.932C156.524 344.932 155.508 344.864 154.389 344.695C153.305 344.525 152.289 344.254 151.374 343.915C150.459 343.576 149.68 343.068 149.07 342.492C148.46 341.916 148.155 341.171 148.155 340.324C148.155 339.714 148.324 339.239 148.663 338.833C149.002 338.426 149.51 338.223 150.222 338.223C150.594 338.223 150.933 338.29 151.204 338.392C151.475 338.528 151.746 338.697 151.984 338.934C153.339 340.29 155.406 340.933 158.151 340.9C158.252 340.9 158.354 340.9 158.456 340.9C158.557 340.9 158.659 340.9 158.761 340.9C157.744 339.748 157.27 338.358 157.27 336.766H157.236ZM162.318 336.901C162.318 337.477 162.454 337.986 162.725 338.426C162.996 338.867 163.369 339.273 163.809 339.578C164.284 339.239 164.622 338.867 164.894 338.426C165.165 337.986 165.3 337.477 165.3 336.901C165.3 336.257 165.165 335.783 164.894 335.512C164.622 335.241 164.25 335.105 163.809 335.105C163.369 335.105 162.996 335.241 162.725 335.512C162.454 335.783 162.318 336.257 162.318 336.901ZM177.77 329.786C177.77 330.429 177.532 330.971 177.092 331.378C176.651 331.785 175.974 331.988 175.093 331.988C174.212 331.988 173.534 331.785 173.094 331.378C172.653 330.971 172.416 330.429 172.416 329.786V323.754H168.621C167.977 323.754 167.435 323.619 167.028 323.314C166.622 323.009 166.418 322.466 166.418 321.687C166.418 320.908 166.622 320.366 167.028 320.061C167.435 319.756 167.977 319.62 168.621 319.62H172.416V314.605C172.416 313.962 172.653 313.419 173.094 313.013C173.534 312.606 174.212 312.403 175.093 312.403C175.974 312.403 176.651 312.606 177.092 313.013C177.532 313.419 177.77 313.962 177.77 314.605V329.786Z" fill="white"/>
</svg>
