<svg width="78" height="78" viewBox="0 0 78 78" fill="none" xmlns="http://www.w3.org/2000/svg">
<path d="M60.54 0H16.92C7.57534 0 0 7.57534 0 16.92V60.54C0 69.8847 7.57534 77.46 16.92 77.46H60.54C69.8847 77.46 77.46 69.8847 77.46 60.54V16.92C77.46 7.57534 69.8847 0 60.54 0Z" fill="#FCEF7B"/>
<path d="M26.2304 41.5501C33.1781 41.5501 38.8104 35.9179 38.8104 28.9701C38.8104 22.0224 33.1781 16.3901 26.2304 16.3901C19.2827 16.3901 13.6504 22.0224 13.6504 28.9701C13.6504 35.9179 19.2827 41.5501 26.2304 41.5501Z" fill="white"/>
<path d="M51.0605 41.5501C58.0082 41.5501 63.6405 35.9179 63.6405 28.9701C63.6405 22.0224 58.0082 16.3901 51.0605 16.3901C44.1127 16.3901 38.4805 22.0224 38.4805 28.9701C38.4805 35.9179 44.1127 41.5501 51.0605 41.5501Z" fill="white"/>
<path d="M30.6992 31.5298C34.151 31.5298 36.9492 28.7316 36.9492 25.2798C36.9492 21.828 34.151 19.0298 30.6992 19.0298C27.2474 19.0298 24.4492 21.828 24.4492 25.2798C24.4492 28.7316 27.2474 31.5298 30.6992 31.5298Z" fill="#171C24"/>
<path d="M55.7793 31.5298C59.2311 31.5298 62.0293 28.7316 62.0293 25.2798C62.0293 21.828 59.2311 19.0298 55.7793 19.0298C52.3275 19.0298 49.5293 21.828 49.5293 25.2798C49.5293 28.7316 52.3275 31.5298 55.7793 31.5298Z" fill="#171C24"/>
<path d="M32.5996 46.6299H43.8596" stroke="#171C24" stroke-width="2" stroke-linecap="round" stroke-linejoin="round"/>
</svg>
