<svg width="78" height="78" viewBox="0 0 78 78" fill="none" xmlns="http://www.w3.org/2000/svg">
<path d="M60.54 0H16.92C7.57534 0 0 7.57534 0 16.92V60.54C0 69.8847 7.57534 77.46 16.92 77.46H60.54C69.8847 77.46 77.46 69.8847 77.46 60.54V16.92C77.46 7.57534 69.8847 0 60.54 0Z" fill="#9DF4B6"/>
<path d="M33.0293 40.78C33.0293 40.78 38.3593 37.7 44.8193 40.84" stroke="#171C24" stroke-width="2" stroke-linecap="round" stroke-linejoin="round"/>
<path d="M66.9608 26.2699C66.9608 33.2199 61.3208 38.8499 54.3808 38.8499C47.4408 38.8499 41.8008 33.2199 41.8008 26.2699C41.8008 25.4999 41.8708 24.7499 42.0108 24.0199L64.7708 19.1899C66.1508 21.1999 66.9608 23.6499 66.9608 26.2699Z" fill="white"/>
<path d="M54.3709 25.0799C54.3709 28.5399 51.5809 31.3299 48.1309 31.3299C44.6809 31.3299 41.8809 28.5399 41.8809 25.0799C41.8809 24.7199 41.9109 24.3699 41.9809 24.0199L53.3109 21.6099C53.9809 22.6099 54.3709 23.7999 54.3709 25.0799Z" fill="#171C24"/>
<path d="M11.0098 26.1899C11.0098 33.1399 16.6498 38.7699 23.5898 38.7699C30.5298 38.7699 36.1698 33.1399 36.1698 26.1899C36.1698 25.4199 36.0998 24.6699 35.9598 23.9399L13.1998 19.1099C11.8198 21.1199 11.0098 23.5699 11.0098 26.1899Z" fill="white"/>
<path d="M23.5996 24.9998C23.5996 28.4598 26.3896 31.2498 29.8396 31.2498C33.2896 31.2498 36.0896 28.4598 36.0896 24.9998C36.0896 24.6398 36.0596 24.2898 35.9896 23.9398L24.6596 21.5298C23.9896 22.5298 23.5996 23.7198 23.5996 24.9998Z" fill="#171C24"/>
</svg>
