<svg width="118" height="28" viewBox="0 0 118 28" fill="none" xmlns="http://www.w3.org/2000/svg">
<path d="M2.58587 26.4858C2.04737 26.4858 1.60807 26.3583 1.26797 26.1173C0.927865 25.8623 0.757812 25.4088 0.757812 24.7569C0.757812 24.1051 0.927865 23.6516 1.26797 23.3965C1.60807 23.1414 2.04737 23.0281 2.58587 23.0281H11.9104V20.1514C11.9104 19.6129 12.0946 19.1736 12.4631 18.8334C12.8315 18.4933 13.3984 18.3233 14.1352 18.3233C14.8721 18.3233 15.439 18.4933 15.8074 18.8334C16.1759 19.1736 16.3601 19.6129 16.3601 20.1514V23.0281H25.6846C26.2231 23.0281 26.6624 23.1556 27.0025 23.3965C27.3426 23.6374 27.5127 24.0909 27.5127 24.7569C27.5127 25.423 27.3426 25.8623 27.0025 26.1173C26.6624 26.3724 26.2231 26.4858 25.6846 26.4858H2.58587ZM14.1494 17.6006C11.6837 17.6006 9.58635 17.473 7.84332 17.2321C6.10028 16.977 4.69735 16.6936 3.63453 16.3535C3.1102 16.1693 2.68507 15.9567 2.33079 15.6875C1.97652 15.4324 1.80647 15.0356 1.80647 14.5113C1.80647 13.9444 1.97652 13.5051 2.33079 13.1934C2.68507 12.8816 3.1102 12.7257 3.63453 12.7257C4.04549 12.7257 4.4281 12.8108 4.78238 12.9667C5.13665 13.1225 5.7035 13.2926 6.44039 13.4768V4.50656H4.20137C3.66287 4.50656 3.22357 4.37902 2.88346 4.13811C2.54336 3.88303 2.37331 3.44373 2.37331 2.77769C2.37331 2.11165 2.54336 1.67235 2.88346 1.41727C3.22357 1.1622 3.66287 1.04883 4.20137 1.04883H24.0691C24.6076 1.04883 25.0469 1.17637 25.387 1.41727C25.7271 1.67235 25.8972 2.11165 25.8972 2.77769C25.8972 3.44373 25.7271 3.88303 25.387 4.13811C25.0469 4.39319 24.6076 4.50656 24.0691 4.50656H21.8301V5.42767C21.8301 6.80226 21.7734 8.16268 21.6601 9.50892C21.5467 10.8552 21.3483 12.2298 21.0507 13.6327C21.5892 13.5477 22.0427 13.4343 22.3969 13.3209C22.7512 13.2076 23.0488 13.1084 23.2897 13.0092C23.5448 12.9241 23.7574 12.8391 23.9699 12.7824C24.1683 12.7257 24.3951 12.6974 24.6501 12.6974C25.1745 12.6974 25.5996 12.8533 25.9539 13.165C26.3081 13.4768 26.4782 13.9161 26.4782 14.4829C26.4782 15.0073 26.3081 15.3899 25.9539 15.6591C25.5996 15.9142 25.1745 16.141 24.6501 16.3252C23.5873 16.6653 22.1844 16.9629 20.4413 17.2038C18.6983 17.4589 16.601 17.5722 14.1352 17.5722L14.1494 17.6006ZM16.4876 14.1003C16.7994 12.6549 17.0261 11.2094 17.1678 9.77817C17.3096 8.3469 17.3662 6.88729 17.3662 5.4135V4.49238H10.9184V14.0578C11.3719 14.0862 11.8679 14.1003 12.3922 14.1145C12.9165 14.1145 13.5117 14.1287 14.1352 14.1287H15.354C15.7366 14.1287 16.105 14.1287 16.4735 14.1003H16.4876Z" fill="#5453EE"/>
<path d="M51.0519 12.7823C51.0519 13.3208 50.8677 13.7601 50.5134 14.1002C50.145 14.4403 49.6065 14.6103 48.8838 14.6103C48.1611 14.6103 47.6226 14.4403 47.2541 14.1002C46.8857 13.7601 46.7156 13.3208 46.7156 12.7823V9.45206H41.9967C41.1322 10.8692 39.871 12.0454 38.1988 12.9665C36.5267 13.8876 34.3868 14.3977 31.7935 14.5111C31.1984 14.5395 30.7307 14.3977 30.3906 14.086C30.0363 13.7742 29.8663 13.3491 29.8663 12.7823C29.8663 12.2863 29.9796 11.8895 30.2064 11.6061C30.4331 11.3226 30.9433 11.1668 31.7369 11.1101C33.0264 11.0392 34.1034 10.8408 34.9962 10.5007C35.8748 10.1606 36.6117 9.73549 37.2069 9.21116H31.6093C31.0708 9.21116 30.6315 9.08362 30.2914 8.84271C29.9513 8.58763 29.7812 8.14833 29.7812 7.48229C29.7812 6.81626 29.9513 6.37696 30.2914 6.12188C30.6315 5.8668 31.0708 5.75343 31.6093 5.75343H39.205C39.29 5.21493 39.3609 4.67643 39.4034 4.16628H31.9494C31.4109 4.16628 30.9716 4.03874 30.6315 3.79783C30.2914 3.54275 30.1214 3.10345 30.1214 2.43741C30.1214 1.77138 30.2914 1.33208 30.6315 1.077C30.9716 0.821919 31.4109 0.708551 31.9494 0.708551H42.7336C43.2721 0.708551 43.7114 0.83609 44.0515 1.077C44.3916 1.33208 44.5616 1.77138 44.5616 2.43741C44.5616 2.90506 44.4766 3.2735 44.2924 3.52858C44.1081 3.78366 43.8672 3.95371 43.5413 4.06708C43.513 4.70478 43.4563 5.34247 43.3429 5.99434H46.7298V1.82806C46.7298 1.28956 46.914 0.850261 47.2683 0.510156C47.6226 0.170052 48.1752 0 48.8979 0C49.6207 0 50.1592 0.170052 50.5276 0.510156C50.8819 0.850261 51.0661 1.28956 51.0661 1.82806V12.7823H51.0519ZM39.3183 20.2787C39.3183 18.7199 39.7718 17.5295 40.6929 16.7076C41.614 15.8857 42.9886 15.4747 44.8167 15.4747C46.6448 15.4747 48.0193 15.8999 48.9405 16.7643C49.8616 17.6287 50.315 18.8049 50.315 20.2929C50.315 21.6108 49.8899 22.7586 49.0255 23.7506C49.1389 23.779 49.2522 23.779 49.3798 23.779H49.734C52.1998 23.779 53.9712 23.2405 55.0623 22.1493C55.2607 21.9509 55.4733 21.795 55.7 21.6958C55.9268 21.5966 56.196 21.5399 56.5078 21.5399C57.0888 21.5399 57.5281 21.71 57.8115 22.0501C58.0949 22.3902 58.2366 22.8012 58.2366 23.3113C58.2366 24.034 57.9816 24.6434 57.4714 25.1252C56.9613 25.607 56.3236 26.0038 55.5441 26.3156C54.7647 26.6273 53.9003 26.8399 52.965 26.9816C52.0297 27.1233 51.137 27.18 50.3009 27.18C49.3089 27.18 48.3453 27.1091 47.4242 26.9533C46.503 26.8116 45.6244 26.6132 44.8167 26.3581C43.9806 26.6132 43.102 26.7974 42.1951 26.9533C41.2739 27.095 40.3245 27.18 39.3325 27.18C38.4964 27.18 37.6036 27.1091 36.6684 26.9816C35.7331 26.8541 34.8686 26.6273 34.0892 26.3156C33.3098 26.0038 32.658 25.6212 32.162 25.1252C31.6518 24.6434 31.3967 24.034 31.3967 23.3113C31.3967 22.8153 31.5385 22.3902 31.8219 22.0501C32.1053 21.71 32.5446 21.5399 33.1256 21.5399C33.4374 21.5399 33.7066 21.5966 33.9334 21.6958C34.1601 21.795 34.3727 21.9509 34.5711 22.1493C35.6764 23.2546 37.4478 23.7931 39.8994 23.779H40.2395C40.3528 23.779 40.4662 23.779 40.5796 23.7506C39.7435 22.7728 39.3183 21.625 39.3183 20.2929V20.2787ZM43.5555 20.4204C43.5555 20.8881 43.6688 21.3132 43.8956 21.6958C44.1223 22.0643 44.4199 22.3902 44.8167 22.6594C45.1993 22.3902 45.5111 22.0643 45.7378 21.6958C45.9645 21.3274 46.0779 20.9022 46.0779 20.4204C46.0779 19.8819 45.9645 19.4993 45.7378 19.2726C45.5111 19.0458 45.1993 18.9325 44.8167 18.9325C44.4341 18.9325 44.1223 19.0458 43.8956 19.2726C43.6688 19.4993 43.5555 19.8819 43.5555 20.4204ZM57.4572 13.4625C57.4572 14.001 57.273 14.4403 56.9187 14.7804C56.5503 15.1205 56.0118 15.2905 55.2891 15.2905C54.5663 15.2905 54.0279 15.1205 53.6594 14.7804C53.291 14.4403 53.1209 14.001 53.1209 13.4625V1.82806C53.1209 1.28956 53.3051 0.850261 53.6594 0.510156C54.0137 0.170052 54.5663 0 55.2891 0C56.0118 0 56.5503 0.170052 56.9187 0.510156C57.273 0.850261 57.4572 1.28956 57.4572 1.82806V13.4625Z" fill="#5453EE"/>
<path d="M66.4379 22.2768C66.9056 22.2768 67.3591 22.2485 67.7558 22.1918C68.1668 22.1351 68.5919 22.0359 69.0312 21.88C69.4705 21.7383 69.9523 21.5399 70.4483 21.299C70.9443 21.0581 71.5395 20.7605 72.1914 20.4063C72.489 20.2504 72.7866 20.1654 73.1125 20.1512C73.4242 20.1512 73.7077 20.1937 73.9627 20.3071C74.2178 20.4204 74.4162 20.5905 74.5863 20.8172C74.7563 21.044 74.8413 21.3132 74.8413 21.625C74.8413 22.0359 74.7422 22.4044 74.5579 22.7586C74.3595 23.1129 73.9769 23.4389 73.3817 23.7648C72.744 24.1049 72.1347 24.4025 71.5395 24.6434C70.9443 24.8985 70.335 25.0969 69.7256 25.2527C69.1163 25.4086 68.4644 25.5362 67.7984 25.607C67.1181 25.692 66.3813 25.7204 65.5593 25.7204C63.8163 25.7204 62.5834 25.2244 61.8607 24.2183C61.138 23.2121 60.7695 21.8092 60.7695 19.9953C60.7695 18.6349 60.8262 17.2178 60.9538 15.744C61.0813 14.2702 61.2513 12.7823 61.4781 11.3085C61.7048 9.83468 61.9741 8.37507 62.2858 6.92963C62.5976 5.49835 62.9377 4.13794 63.3061 2.84837C63.5045 2.15399 63.8021 1.6155 64.1706 1.26122C64.539 0.906945 65.0917 0.722722 65.8144 0.722722C66.4946 0.722722 67.0048 0.949458 67.3449 1.40293C67.685 1.8564 67.7133 2.55078 67.4441 3.4719C67.104 4.60558 66.7922 5.7676 66.4946 6.95797C66.197 8.1625 65.942 9.43789 65.7152 10.7841C65.4885 12.1446 65.3043 13.5758 65.1767 15.1063C65.035 16.6368 64.9783 18.2664 64.9783 20.0095C64.9783 20.7605 65.0917 21.3274 65.3184 21.71C65.5452 22.0926 65.9136 22.291 66.4379 22.291V22.2768ZM81.5584 25.3378C81.5584 25.8763 81.3742 26.3156 81.0199 26.6557C80.6515 26.9958 80.113 27.1658 79.3902 27.1658C78.6675 27.1658 78.129 26.9958 77.7606 26.6557C77.3921 26.3156 77.2221 25.8763 77.2221 25.3378V13.8734H71.497C70.9585 13.8734 70.5192 13.7459 70.1791 13.505C69.839 13.2499 69.6689 12.8106 69.6689 12.1446C69.6689 11.4785 69.839 11.0392 70.1791 10.7841C70.5192 10.5291 70.9585 10.4157 71.497 10.4157H77.2221V1.82806C77.2221 1.28956 77.4063 0.850261 77.7606 0.510156C78.1149 0.170052 78.6675 0 79.3902 0C80.113 0 80.6515 0.170052 81.0199 0.510156C81.3742 0.850261 81.5584 1.28956 81.5584 1.82806V25.3236V25.3378ZM87.9779 25.3378C87.9779 25.8763 87.7936 26.3156 87.4394 26.6557C87.0709 26.9958 86.5324 27.1658 85.8097 27.1658C85.087 27.1658 84.5485 26.9958 84.18 26.6557C83.8116 26.3156 83.6415 25.8763 83.6415 25.3378V1.82806C83.6415 1.28956 83.8258 0.850261 84.18 0.510156C84.5343 0.170052 85.087 0 85.8097 0C86.5324 0 87.0709 0.170052 87.4394 0.510156C87.7936 0.850261 87.9779 1.28956 87.9779 1.82806V25.3236V25.3378Z" fill="#5453EE"/>
<path d="M107.948 2.43741C107.948 2.90506 107.863 3.2735 107.678 3.52858C107.494 3.78366 107.253 3.95371 106.927 4.06708C106.885 5.54087 106.502 6.91545 105.808 8.19084C105.113 9.46624 104.136 10.5716 102.889 11.521C101.642 12.4563 100.168 13.1932 98.4531 13.7317C96.7384 14.2702 94.8537 14.5253 92.8272 14.5253C92.2321 14.5253 91.7644 14.3552 91.4243 14.001C91.07 13.6467 90.9 13.1932 90.9 12.6264C90.9 12.3713 90.9283 12.1446 90.9708 11.932C91.0133 11.7194 91.1125 11.521 91.2401 11.351C91.3676 11.1809 91.566 11.0392 91.8211 10.94C92.0762 10.8408 92.3879 10.7841 92.7706 10.7841C94.0601 10.7841 95.2221 10.6424 96.2566 10.359C97.2911 10.0756 98.2122 9.69297 99.0058 9.22533H92.6288C92.0903 9.22533 91.651 9.09779 91.3109 8.85688C90.9708 8.6018 90.8008 8.1625 90.8008 7.49647C90.8008 6.83043 90.9708 6.39113 91.3109 6.13605C91.651 5.88097 92.0903 5.7676 92.6288 5.7676H102.095C102.322 5.2291 102.449 4.6906 102.464 4.18045H92.9689C92.4304 4.18045 91.9911 4.05291 91.651 3.812C91.3109 3.55692 91.1409 3.11762 91.1409 2.45159C91.1409 1.78555 91.3109 1.34625 91.651 1.09117C91.9911 0.83609 92.4304 0.722722 92.9689 0.722722H106.12C106.658 0.722722 107.097 0.850261 107.438 1.09117C107.778 1.34625 107.948 1.78555 107.948 2.45159V2.43741ZM99.3317 20.2787C99.3317 18.7199 99.7852 17.5295 100.706 16.7076C101.627 15.8857 103.002 15.4747 104.83 15.4747C106.658 15.4747 108.033 15.8999 108.954 16.7643C109.875 17.6287 110.328 18.8049 110.328 20.2929C110.328 21.6108 109.903 22.7586 109.039 23.7506C109.124 23.7506 109.209 23.7506 109.294 23.7648C109.379 23.7648 109.464 23.779 109.577 23.779C110.725 23.8073 111.746 23.6656 112.61 23.3822C113.474 23.0987 114.183 22.6878 114.736 22.1493C114.934 21.9509 115.147 21.795 115.373 21.6958C115.6 21.5966 115.869 21.5399 116.181 21.5399C116.762 21.5399 117.201 21.71 117.485 22.0501C117.768 22.3902 117.91 22.8012 117.91 23.3113C117.91 24.034 117.655 24.6434 117.145 25.1252C116.635 25.607 115.997 26.0038 115.232 26.3156C114.466 26.6273 113.616 26.8399 112.709 26.9816C111.788 27.1233 110.938 27.18 110.144 27.18C109.195 27.18 108.274 27.1091 107.367 26.9816C106.46 26.8399 105.609 26.6415 104.83 26.3723C103.2 26.9108 101.429 27.18 99.5018 27.18C98.7082 27.18 97.8579 27.1091 96.9368 26.9816C96.0157 26.8541 95.1796 26.6273 94.4144 26.3156C93.6491 26.0038 93.0115 25.6212 92.5013 25.1252C91.9911 24.6434 91.7361 24.034 91.7361 23.3113C91.7361 22.8153 91.8778 22.3902 92.1612 22.0501C92.4446 21.71 92.8839 21.5399 93.4649 21.5399C93.7767 21.5399 94.0459 21.5966 94.2727 21.6958C94.4994 21.795 94.712 21.9509 94.9104 22.1493C96.0441 23.283 97.7587 23.8215 100.069 23.779C100.154 23.779 100.239 23.779 100.324 23.7648C100.409 23.7648 100.494 23.7506 100.579 23.7506C99.7427 22.7728 99.3176 21.625 99.3176 20.2929L99.3317 20.2787ZM103.569 20.4204C103.569 20.8881 103.682 21.3132 103.909 21.6958C104.136 22.0643 104.433 22.3902 104.83 22.6594C105.213 22.3902 105.524 22.0643 105.751 21.6958C105.978 21.3274 106.091 20.9022 106.091 20.4204C106.091 19.8819 105.978 19.4993 105.751 19.2726C105.524 19.0458 105.213 18.9325 104.83 18.9325C104.447 18.9325 104.136 19.0458 103.909 19.2726C103.682 19.4993 103.569 19.8819 103.569 20.4204ZM116.464 14.4828C116.464 15.0213 116.28 15.4606 115.898 15.8007C115.515 16.1408 114.962 16.3108 114.225 16.3108C113.489 16.3108 112.922 16.1408 112.553 15.8007C112.185 15.4606 112.001 15.0213 112.001 14.4828V9.46624H108.84C108.302 9.46624 107.863 9.3387 107.523 9.09779C107.182 8.84271 107.012 8.40341 107.012 7.73737C107.012 7.07133 107.182 6.63203 107.523 6.37696C107.863 6.12188 108.302 6.00851 108.84 6.00851H112.001V1.82806C112.001 1.28956 112.185 0.850261 112.553 0.510156C112.922 0.170052 113.489 0 114.225 0C114.962 0 115.529 0.170052 115.898 0.510156C116.266 0.850261 116.464 1.28956 116.464 1.82806V14.4828Z" fill="#5453EE"/>
</svg>
