<svg width="247" height="232" viewBox="0 0 247 232" fill="none" xmlns="http://www.w3.org/2000/svg">
    <path
            d="M193.05 26.2225C193.493 27.2772 192.644 28.4206 191.506 28.3022L175.399 26.6263C174.239 26.5056 173.651 25.1683 174.346 24.2318L184.188 10.975C184.883 10.0385 186.333 10.2143 186.785 11.2898L193.05 26.2225Z"
            fill="white"
            stroke="white"
            stroke-width="0.602124"
    />
    <path
            d="M69.3712 142.443H19.3882C8.68039 142.443 0 151.124 0 161.831V211.814C0 222.522 8.68039 231.202 19.3882 231.202H69.3712C80.079 231.202 88.7594 222.522 88.7594 211.814V161.831C88.7594 151.124 80.079 142.443 69.3712 142.443Z"
            fill="#FCEF7B"
    />
    <path
            d="M30.0672 190.042C38.0284 190.042 44.4823 183.588 44.4823 175.627C44.4823 167.666 38.0284 161.212 30.0672 161.212C22.106 161.212 15.6521 167.666 15.6521 175.627C15.6521 183.588 22.106 190.042 30.0672 190.042Z"
            fill="white"
    />
    <path
            d="M58.5088 190.065C66.4701 190.065 72.9239 183.611 72.9239 175.65C72.9239 167.689 66.4701 161.235 58.5088 161.235C50.5476 161.235 44.0938 167.689 44.0938 175.65C44.0938 183.611 50.5476 190.065 58.5088 190.065Z"
            fill="white"
    />
    <path
            d="M35.191 178.572C39.1463 178.572 42.3527 175.366 42.3527 171.41C42.3527 167.455 39.1463 164.249 35.191 164.249C31.2357 164.249 28.0293 167.455 28.0293 171.41C28.0293 175.366 31.2357 178.572 35.191 178.572Z"
            fill="#171C24"
    />
    <path
            d="M63.9156 178.595C67.8709 178.595 71.0773 175.388 71.0773 171.433C71.0773 167.478 67.8709 164.271 63.9156 164.271C59.9603 164.271 56.7539 167.478 56.7539 171.433C56.7539 175.388 59.9603 178.595 63.9156 178.595Z"
            fill="#171C24"
    />
    <path
            d="M51.7596 200.309L50.6825 200.917C48.3563 201.959 45.9615 202.429 43.5551 202.406H43.4062C40.9769 202.395 38.5706 201.879 36.2559 200.779L35.1902 200.149C32.0505 198.384 30.9047 193.812 33.8381 191.601L33.9298 191.52C34.9611 190.741 36.233 190.363 37.5164 190.375C38.3643 190.375 39.2123 190.558 39.9914 190.913C39.9685 190.947 39.9685 190.993 39.9685 191.028V192.678C39.9456 193.033 40.2321 193.342 40.6102 193.342H42.2603C42.6155 193.365 42.9249 193.067 42.9249 192.701C42.9249 193.056 43.2114 193.365 43.5666 193.365H45.2166C45.5719 193.388 45.8698 193.09 45.8698 192.724V191.658C46.0646 191.566 46.2365 191.475 46.4198 191.36C47.3823 190.753 48.5053 190.478 49.6283 190.478C50.9002 190.489 52.1835 190.902 53.1919 191.692L53.2836 191.772C56.1712 194.041 54.9336 198.579 51.7596 200.286V200.309Z"
            fill="#171C24"
    />
    <path
            d="M42.9265 192.163V192.701C42.9265 193.056 42.6171 193.354 42.2505 193.354H40.6004C40.2337 193.331 39.9473 193.033 39.9473 192.667V191.017C39.9473 191.017 39.9587 190.936 39.9816 190.902C40.2337 191.017 40.4744 191.143 40.7035 191.303C41.3796 191.739 42.1244 192.025 42.9151 192.151L42.9265 192.163Z"
            fill="white"
    />
    <path
            d="M45.8825 191.67V192.735C45.871 193.091 45.5731 193.388 45.2178 193.388H43.5678C43.2126 193.366 42.9146 193.068 42.9261 192.701V192.162C43.1324 192.197 43.3501 192.231 43.5678 192.243C44.3814 192.208 45.1606 192.013 45.8939 191.67H45.8825Z"
            fill="white"
    />
    <path
            d="M44.0519 192.643L41.0957 192.614L41.0886 193.336L44.0449 193.365L44.0519 192.643Z"
            fill="white"
    />
    <path
            d="M212.193 140.735H162.21C151.503 140.735 142.822 149.415 142.822 160.123V210.106C142.822 220.814 151.503 229.494 162.21 229.494H212.193C222.901 229.494 231.582 220.814 231.582 210.106V160.123C231.582 149.415 222.901 140.735 212.193 140.735Z"
            fill="#9DF4B6"
    />
    <path
            d="M217.361 173.587C217.361 181.551 210.899 188.002 202.946 188.002C194.994 188.002 188.531 181.551 188.531 173.587C188.531 172.705 188.611 171.845 188.772 171.009L214.852 165.474C216.433 167.778 217.361 170.585 217.361 173.587Z"
            fill="white"
    />
    <path
            d="M202.947 172.223C202.947 176.188 199.75 179.385 195.796 179.385C191.843 179.385 188.635 176.188 188.635 172.223C188.635 171.811 188.669 171.41 188.749 171.009L201.732 168.247C202.5 169.393 202.947 170.757 202.947 172.223Z"
            fill="#171C24"
    />
    <path
            d="M190.204 195.496C188.738 197.685 186.56 199.243 183.959 199.725C181.839 200.114 179.731 199.736 177.852 198.751C178.264 196.791 179.502 195.004 181.404 193.961C184.395 192.322 188.039 193.033 190.204 195.496Z"
            fill="#676E79"
    />
    <path
            d="M192.324 188.908C192.233 191.085 191.625 193.124 190.617 194.843C190.491 195.061 190.353 195.279 190.204 195.496C188.039 193.033 184.395 192.322 181.404 193.961C179.502 195.004 178.264 196.791 177.852 198.751C175.48 197.525 173.475 195.347 172.294 192.597C171.779 191.394 172.535 190.008 173.83 189.767L189.872 186.822C191.167 186.581 192.382 187.59 192.324 188.908Z"
            fill="#171C24"
    />
    <path
            d="M158.783 164.936C159.173 165.2 180.921 172.625 180.921 172.625C173.003 173.542 165.486 176.063 158.52 180.967"
            stroke="#171C24"
            stroke-width="2.29175"
            stroke-linecap="round"
            stroke-linejoin="round"
    />
    <path
            d="M228.107 57.5571L181.646 44.8295C171.691 42.1024 161.41 47.9617 158.683 57.9167L145.955 104.377C143.228 114.332 149.088 124.613 159.043 127.34L205.503 140.068C215.458 142.795 225.739 136.936 228.466 126.981L241.194 80.5201C243.921 70.5651 238.062 60.2842 228.107 57.5571Z"
            fill="#7DDFF9"
    />
    <path
            d="M167.449 78.2853C167.507 77.9759 167.587 77.6665 167.667 77.3571C169.787 69.611 177.796 65.0504 185.554 67.1703"
            stroke="#171C24"
            stroke-width="2.80739"
            stroke-linecap="round"
            stroke-linejoin="round"
    />
    <path
            d="M195.603 85.9972C195.706 85.6992 195.798 85.4013 195.89 85.0919C198.01 77.3458 193.449 69.3362 185.691 67.2163"
            stroke="#171C24"
            stroke-width="2.80739"
            stroke-linecap="round"
            stroke-linejoin="round"
    />
    <path
            d="M195.672 86.0084C195.729 85.699 195.809 85.3896 195.89 85.0803C198.009 77.3342 206.019 72.7736 213.777 74.8934"
            stroke="#171C24"
            stroke-width="2.80739"
            stroke-linecap="round"
            stroke-linejoin="round"
    />
    <path
            d="M223.814 93.7202C223.917 93.4223 224.009 93.1243 224.101 92.815C226.22 85.0689 221.66 77.0592 213.902 74.9393"
            stroke="#171C24"
            stroke-width="2.80739"
            stroke-linecap="round"
            stroke-linejoin="round"
    />
    <path
            d="M184.625 95.1189C184.625 95.1189 190.331 100.963 199.819 99.9889"
            stroke="#171C24"
            stroke-width="2.80739"
            stroke-linecap="round"
            stroke-linejoin="round"
    />
    <path
            d="M37.9316 129.006C54.5993 100.616 71.0485 92.8733 93.026 99.1983C115.004 105.523 110.187 126.896 94.5313 121.778C78.8761 116.661 75.5644 101.121 75.5644 73.9119C75.5644 46.7024 123 -36.4998 186 23.5003"
            stroke="white"
            stroke-width="3"
            stroke-linecap="round"
            stroke-linejoin="round"
            stroke-dasharray="8.43 8.43"
    />
</svg>